<svg width="382.6" height="80.934" viewBox="0 0 382.6 80.934" xmlns="http://www.w3.org/2000/svg"><g id="svgGroup" stroke-linecap="round" fill-rule="evenodd" font-size="9pt" stroke="#d4fffb" stroke-width="0.25mm" fill="#d4fffb" style="stroke:#d4fffb;stroke-width:0.25mm;fill:#d4fffb"><path d="M 102 49.222 L 101.7 50.022 A 257.596 257.596 0 0 1 109.275 45.1 A 282.147 282.147 0 0 1 109.4 45.022 A 119.964 119.964 0 0 0 115.063 41.264 A 104.001 104.001 0 0 0 116.85 39.972 A 46.573 46.573 0 0 0 120.72 36.79 A 38.076 38.076 0 0 0 122.85 34.672 A 17.247 17.247 0 0 0 124.878 32.039 A 13.008 13.008 0 0 0 126.3 28.922 Q 126.874 27.009 126.213 25.096 A 7.117 7.117 0 0 0 126.15 24.922 Q 125.4 22.922 123.55 21.172 A 15.218 15.218 0 0 0 121.205 19.369 A 20.441 20.441 0 0 0 118.9 18.122 A 21.424 21.424 0 0 0 114.464 16.644 A 25.47 25.47 0 0 0 112.7 16.322 Q 108.2 15.722 103.6 16.022 Q 104 19.022 103.75 22.072 Q 103.559 24.407 103.221 26.244 A 26.522 26.522 0 0 1 103 27.322 Q 101.7 32.722 99.7 38.472 A 195.681 195.681 0 0 1 97.161 45.367 A 164.401 164.401 0 0 1 95.6 49.222 Q 95.4 49.522 95 50.222 A 3.312 3.312 0 0 1 94.871 50.43 Q 94.551 50.906 94.3 50.822 A 0.176 0.176 0 0 1 94.224 50.74 Q 94.123 50.539 94.2 49.922 Q 94.3 49.122 94.3 48.822 Q 94.4 47.622 94.75 45.872 Q 95.1 44.122 95.45 42.222 A 54.467 54.467 0 0 1 96.139 39.012 A 49.272 49.272 0 0 1 96.25 38.572 A 88.894 88.894 0 0 1 96.58 37.323 Q 96.715 36.829 96.845 36.379 A 50.796 50.796 0 0 1 97.1 35.522 A 7.882 7.882 0 0 0 97.199 35.195 Q 97.398 34.496 97.75 32.972 A 81.642 81.642 0 0 0 98.095 31.404 Q 98.241 30.707 98.392 29.936 A 151.4 151.4 0 0 0 98.7 28.322 Q 99.2 25.622 99.7 22.522 Q 100.2 19.422 100.5 16.522 L 99.1 16.722 Q 98.8 20.522 97.9 24.422 Q 97 28.322 95.85 32.272 Q 94.7 36.222 93.45 40.272 A 114.157 114.157 0 0 0 91.414 47.734 A 104.811 104.811 0 0 0 91.3 48.222 A 68.528 68.528 0 0 0 90.168 54.577 A 75.538 75.538 0 0 0 90.05 55.522 Q 89.6 59.322 89.75 63.022 Q 89.9 66.722 90.65 70.172 A 20.739 20.739 0 0 0 92.378 75.12 A 18.844 18.844 0 0 0 93.1 76.422 A 2.575 2.575 0 0 1 93.139 76.526 Q 93.272 76.904 93.116 76.921 A 0.141 0.141 0 0 1 93.1 76.922 A 0.36 0.36 0 0 1 92.965 76.893 Q 92.85 76.846 92.709 76.724 A 2.098 2.098 0 0 1 92.6 76.622 Q 90.1 73.722 88.8 70.122 Q 87.5 66.522 87.15 62.572 Q 86.8 58.622 87.25 54.422 Q 87.7 50.222 88.6 46.222 Q 90.3 38.722 92.7 31.422 A 175.988 175.988 0 0 0 95.822 20.862 A 152.49 152.49 0 0 0 96.7 17.322 Q 94.2 17.922 91.8 18.772 A 48.444 48.444 0 0 0 88.369 20.132 A 42.312 42.312 0 0 0 87.3 20.622 Q 86.834 20.809 86.715 20.734 A 0.087 0.087 0 0 1 86.7 20.722 Q 86.6 20.622 86.8 20.372 Q 86.945 20.191 87.089 20.089 A 0.851 0.851 0 0 1 87.2 20.022 Q 92.2 15.922 99.4 14.222 Q 106.6 12.522 114.1 13.322 A 21.551 21.551 0 0 1 119.797 14.836 A 19.809 19.809 0 0 1 121.25 15.522 A 19.482 19.482 0 0 1 124.542 17.672 A 16.091 16.091 0 0 1 126.6 19.672 Q 128.7 22.122 129.35 25.122 Q 130 28.122 128.7 31.122 Q 127.2 34.622 123.95 37.622 A 51.397 51.397 0 0 1 118.202 42.191 A 58.62 58.62 0 0 1 116.65 43.222 Q 112.6 45.822 108.1 48.022 Q 103.6 50.222 99.7 52.122 A 10.287 10.287 0 0 1 99.725 52.122 Q 100.916 52.125 102.163 52.405 A 13.253 13.253 0 0 1 103 52.622 Q 104.7 53.122 106.35 53.872 A 27.567 27.567 0 0 1 109.084 55.3 A 25.262 25.262 0 0 1 109.45 55.522 Q 110.658 56.272 111.484 57.022 A 8.993 8.993 0 0 1 111.8 57.322 Q 115 60.222 117.8 63.472 Q 120.6 66.722 123.2 70.222 Q 123.282 70.386 123.597 70.783 A 16.828 16.828 0 0 0 123.75 70.972 A 2.862 2.862 0 0 1 123.871 71.131 Q 124.127 71.492 124.039 71.668 A 0.205 0.205 0 0 1 124 71.722 Q 123.913 71.809 123.413 71.632 A 6.214 6.214 0 0 1 123.25 71.572 Q 122.612 71.327 122.408 71.13 A 0.585 0.585 0 0 1 122.4 71.122 A 18.07 18.07 0 0 1 121.765 70.705 Q 121.416 70.466 121.028 70.181 A 36.077 36.077 0 0 1 120.55 69.822 Q 119.5 69.022 118.35 68.122 Q 117.2 67.222 116.1 66.272 Q 115.258 65.545 114.65 64.905 A 12.628 12.628 0 0 1 114.3 64.522 A 16.529 16.529 0 0 1 114.063 64.328 Q 113.444 63.813 111.9 62.472 Q 110 60.822 107.6 58.922 Q 105.2 57.022 102.7 55.422 Q 100.2 53.822 98.6 53.422 Q 98.37 53.346 97.994 53.21 A 67.838 67.838 0 0 1 97.75 53.122 Q 97.227 52.932 97.292 52.471 A 0.846 0.846 0 0 1 97.3 52.422 Q 98.1 48.622 99.3 45.022 Q 100.5 41.422 101.6 37.622 Q 103 32.922 104.25 28.022 A 47.136 47.136 0 0 0 105.468 20.949 A 56.721 56.721 0 0 0 105.7 17.422 Q 105.7 16.994 105.773 16.932 A 0.041 0.041 0 0 1 105.8 16.922 A 0.289 0.289 0 0 1 106.001 17.011 Q 106.164 17.164 106.289 17.583 A 3.54 3.54 0 0 1 106.3 17.622 Q 107.5 20.322 107.3 24.622 Q 107.1 28.922 106.25 33.572 A 87.99 87.99 0 0 1 104.456 41.403 A 79.949 79.949 0 0 1 104.15 42.472 Q 103.083 46.1 102.271 48.452 A 61.78 61.78 0 0 1 102 49.222 Z M 363.364 69.43 A 128.056 128.056 0 0 0 365.2 66.922 Q 365.8 69.722 367.25 72.272 A 11.098 11.098 0 0 0 369.097 74.669 A 14.066 14.066 0 0 0 371.6 76.622 Q 372.02 76.874 372.158 76.844 A 0.083 0.083 0 0 0 372.2 76.822 L 371.9 76.422 Q 368.2 72.022 367.65 66.572 A 33.758 33.758 0 0 1 367.477 63.181 A 31.15 31.15 0 0 1 368.3 56.022 Q 369.2 52.422 370.6 48.872 Q 372 45.322 373.05 41.922 Q 374.1 38.522 374.5 35.222 Q 374.647 34.011 374.578 32.799 A 14.6 14.6 0 0 0 373.7 28.622 Q 373.5 28.122 373.25 27.822 A 1.235 1.235 0 0 0 373.203 27.769 Q 372.981 27.532 372.8 27.622 L 372.6 28.722 Q 372.5 29.522 372.35 30.322 A 255.516 255.516 0 0 0 372.251 30.852 Q 372.2 31.131 372.143 31.439 A 477.381 477.381 0 0 0 372 32.222 Q 368.5 32.822 365.4 34.572 Q 362.3 36.322 359.75 38.772 Q 357.2 41.222 355.25 44.222 Q 353.3 47.222 352 50.422 A 38.255 38.255 0 0 0 351.036 53.111 A 30.499 30.499 0 0 0 350.05 57.122 A 28.293 28.293 0 0 0 349.647 61.923 A 30.633 30.633 0 0 0 349.7 63.722 A 8.728 8.728 0 0 0 349.732 64.018 Q 349.976 65.964 351 66.522 Q 351.909 67.018 353.229 65.942 A 7.657 7.657 0 0 0 353.8 65.422 Q 356 63.222 357.85 61.072 Q 359.7 58.922 361.45 56.672 Q 363.2 54.422 364.75 51.972 A 122.195 122.195 0 0 0 365.724 50.407 A 143.51 143.51 0 0 0 367.9 46.722 Q 367.4 48.122 367.15 48.972 Q 366.9 49.822 366.65 50.572 A 42.256 42.256 0 0 0 366.463 51.149 A 50.176 50.176 0 0 0 366.15 52.172 Q 365.9 53.022 365.6 54.422 Q 365.1 56.322 364.85 58.222 Q 364.6 60.122 364.6 62.122 Q 362.9 64.822 360.9 67.322 Q 360 68.422 358.85 69.672 Q 357.7 70.922 356.3 71.972 Q 354.9 73.022 353.3 73.672 A 8.499 8.499 0 0 1 352.165 74.042 A 9.702 9.702 0 0 1 349.8 74.322 A 8.927 8.927 0 0 1 349.557 74.319 Q 348.714 74.296 347.999 74.112 A 4.714 4.714 0 0 1 346 73.072 Q 344.6 71.822 343.85 69.972 A 14.333 14.333 0 0 1 343.755 69.733 A 15.347 15.347 0 0 1 342.85 66.022 Q 342.6 63.922 342.7 62.122 Q 343.1 54.922 346.15 48.122 Q 349.2 41.322 354.4 35.922 A 2.339 2.339 0 0 0 354.435 35.886 Q 354.53 35.787 354.625 35.666 A 4.019 4.019 0 0 0 354.8 35.422 A 2.914 2.914 0 0 0 354.815 35.399 Q 354.996 35.122 354.9 35.122 Q 354.9 34.851 354.615 34.988 A 1.016 1.016 0 0 0 354.55 35.022 A 5.194 5.194 0 0 1 354.427 35.091 Q 354.247 35.187 354.155 35.213 A 0.212 0.212 0 0 1 354.1 35.222 A 12.115 12.115 0 0 0 353.815 35.386 Q 352.943 35.902 352.059 36.616 A 20.616 20.616 0 0 0 350.45 38.072 A 27.062 27.062 0 0 0 348.794 39.893 A 34.809 34.809 0 0 0 346.85 42.472 Q 345.1 45.022 343.55 48.172 Q 342 51.322 340.9 54.822 Q 340.1 57.322 339.85 61.172 Q 339.6 65.022 340.5 68.622 A 15.891 15.891 0 0 0 340.748 69.505 A 13.276 13.276 0 0 0 343.75 74.722 A 6.755 6.755 0 0 0 344.367 75.301 Q 346.465 77.037 349.945 77.037 A 14.751 14.751 0 0 0 350.6 77.022 A 17.648 17.648 0 0 0 352.848 76.801 A 13.294 13.294 0 0 0 355.4 76.122 Q 357.5 75.322 359.2 73.972 Q 360.9 72.622 362.3 70.822 A 106.26 106.26 0 0 0 363.364 69.43 Z M 241 61.822 Q 239 55.122 237.8 48.022 Q 236.6 40.922 235.7 33.722 Q 235 28.422 234.1 23.122 Q 233.2 17.822 231.3 12.122 Q 231.102 11.628 231.1 11.573 A 0.029 0.029 0 0 1 231.1 11.572 A 0.045 0.045 0 0 1 231.111 11.546 Q 231.147 11.499 231.3 11.422 Q 231.5 11.422 232 11.922 Q 233.485 13.407 234.645 16.042 A 26.507 26.507 0 0 1 235.55 18.422 Q 237 22.822 238.05 27.772 Q 239.1 32.722 239.8 37.372 Q 240.426 41.532 240.892 44.211 A 139.524 139.524 0 0 0 241 44.822 Q 241.5 47.122 241.85 49.522 Q 242.2 51.922 242.4 54.322 A 38.83 38.83 0 0 1 243.665 50.363 A 45.407 45.407 0 0 1 244.3 48.772 Q 245.5 45.922 246.75 43.222 A 107.653 107.653 0 0 1 248.469 39.675 A 90.995 90.995 0 0 1 249.25 38.172 A 129.689 129.689 0 0 0 250.124 36.501 Q 250.8 35.185 251.3 34.122 A 102.376 102.376 0 0 1 255.434 26.209 A 112.746 112.746 0 0 1 256.1 25.072 A 120.636 120.636 0 0 1 258.069 21.864 Q 259.663 19.36 261.1 17.422 A 46.678 46.678 0 0 1 261.313 17.141 Q 261.989 16.252 262.094 16.223 A 0.024 0.024 0 0 1 262.1 16.222 A 0.382 0.382 0 0 1 262.205 16.426 Q 262.239 16.605 262.15 16.872 A 16.089 16.089 0 0 1 261.943 17.454 A 19.442 19.442 0 0 1 261.8 17.822 Q 259.8 25.022 256.35 31.822 Q 252.9 38.622 249.4 45.522 Q 247.4 49.322 245.4 53.222 Q 243.4 57.122 242.4 61.922 Q 242.215 62.941 241.901 63.23 A 0.526 0.526 0 0 1 241.85 63.272 A 0.165 0.165 0 0 1 241.779 63.303 Q 241.481 63.349 241.083 62.095 A 13.432 13.432 0 0 1 241 61.822 Z M 320.8 47.722 L 322.5 41.422 A 2.554 2.554 0 0 1 321.581 41.246 A 3.136 3.136 0 0 1 321.3 41.122 A 2.803 2.803 0 0 1 321.053 41.04 Q 320.6 40.864 320.6 40.622 A 0.198 0.198 0 0 1 320.64 40.515 Q 320.768 40.326 321.3 40.022 A 11.646 11.646 0 0 1 324.3 38.984 Q 325.62 38.729 326.95 38.822 Q 329.8 39.022 332.7 39.522 Q 334.5 39.822 336.35 39.972 Q 338.151 40.118 340.284 39.269 A 13.298 13.298 0 0 0 340.4 39.222 A 0.605 0.605 0 0 1 340.479 39.155 Q 340.64 39.042 340.8 39.122 A 0.272 0.272 0 0 1 340.878 39.295 Q 340.894 39.465 340.753 39.729 A 2.176 2.176 0 0 1 340.7 39.822 A 4.575 4.575 0 0 1 340.054 40.857 A 3.654 3.654 0 0 1 339 41.722 Q 337.9 42.322 336.7 42.622 A 430.698 430.698 0 0 0 335.994 44.939 Q 335.666 46.028 335.381 46.998 A 250.187 250.187 0 0 0 335.3 47.272 Q 334.888 48.682 334.57 49.784 A 380.855 380.855 0 0 0 334.3 50.722 Q 333.2 55.522 331.75 60.472 A 92.477 92.477 0 0 0 330.831 63.83 Q 330.12 66.644 329.8 68.822 A 10.793 10.793 0 0 1 329.725 69.198 Q 329.563 69.941 329.4 70.022 A 0.154 0.154 0 0 1 329.35 70.038 Q 329.193 70.058 329.036 69.706 A 2.26 2.26 0 0 1 329 69.622 Q 328.835 69.21 328.738 68.934 A 7.558 7.558 0 0 1 328.7 68.822 A 26.79 26.79 0 0 1 328.454 65.158 A 30.155 30.155 0 0 1 328.55 62.772 A 49.622 49.622 0 0 1 329.332 57.145 A 54.903 54.903 0 0 1 329.5 56.322 Q 330.2 53.022 331.1 49.672 Q 332 46.322 333 42.922 L 332 42.922 Q 331.5 42.922 331 42.822 Q 330.2 44.922 329.35 46.972 Q 328.5 49.022 327.7 50.822 A 8.713 8.713 0 0 0 327.654 50.917 Q 327.539 51.154 327.271 51.727 A 227.459 227.459 0 0 0 327.25 51.772 A 5.817 5.817 0 0 1 327.125 52.025 Q 326.867 52.515 326.705 52.522 A 0.108 0.108 0 0 1 326.7 52.522 Q 326.3 52.422 326.4 51.572 Q 326.5 50.722 326.5 50.422 A 30.481 30.481 0 0 1 326.685 49.227 Q 326.869 48.172 327.15 46.922 Q 327.6 44.922 328 42.622 A 8.751 8.751 0 0 0 327.406 42.526 A 11.224 11.224 0 0 0 326.9 42.472 Q 326.3 42.422 325.7 42.222 A 420.331 420.331 0 0 0 324.559 46.093 A 369.262 369.262 0 0 0 324.55 46.122 Q 324 48.022 323.5 49.922 A 58.651 58.651 0 0 0 322.541 55.306 A 68.269 68.269 0 0 0 322.3 57.372 Q 321.9 61.322 322.3 65.522 A 12.775 12.775 0 0 0 322.862 68.12 A 15.652 15.652 0 0 0 323.35 69.422 A 17.69 17.69 0 0 0 324.822 72.197 A 15.733 15.733 0 0 0 325.4 73.022 A 9.942 9.942 0 0 0 326.948 74.675 A 8.476 8.476 0 0 0 328.15 75.522 Q 329.7 76.422 331.2 76.122 A 1.993 1.993 0 0 1 331.283 76.091 Q 331.691 75.948 331.6 76.222 A 1.008 1.008 0 0 1 331.53 76.386 Q 331.439 76.553 331.3 76.622 A 4.964 4.964 0 0 1 329.72 76.879 Q 328.996 76.879 328.243 76.673 A 6.931 6.931 0 0 1 327.5 76.422 A 10.555 10.555 0 0 1 324.669 74.716 A 12.786 12.786 0 0 1 323.8 73.922 Q 322.1 72.222 320.9 69.972 A 14.596 14.596 0 0 1 319.835 67.457 A 11.863 11.863 0 0 1 319.4 65.522 Q 318.9 60.822 319.3 56.422 Q 319.7 52.022 320.8 47.722 Z M 137.341 37.648 A 26.279 26.279 0 0 0 139.5 32.322 A 15.452 15.452 0 0 0 139.773 31.107 Q 140.189 28.849 140.15 25.772 A 16.622 16.622 0 0 0 139.518 21.505 A 21.787 21.787 0 0 0 138 17.622 Q 135.8 13.322 132.1 10.372 A 28.905 28.905 0 0 0 131.402 9.833 A 25.358 25.358 0 0 0 124.2 6.022 A 35.677 35.677 0 0 0 121.91 5.269 A 30.032 30.032 0 0 0 116.2 4.172 A 49.682 49.682 0 0 0 115.16 4.09 Q 113.394 3.969 111.745 3.986 A 35.53 35.53 0 0 0 108.95 4.122 Q 105.6 4.422 102.95 5.272 A 28.948 28.948 0 0 0 101.579 5.748 Q 100.749 6.062 100.048 6.393 A 13.209 13.209 0 0 0 98.7 7.122 Q 97.9 7.722 97.9 7.822 A 0.88 0.88 0 0 0 97.902 7.827 Q 98.001 8.022 98.1 7.972 A 0.407 0.407 0 0 1 98.13 7.959 Q 98.278 7.9 98.9 7.722 Q 102.8 6.722 107 6.372 A 37.087 37.087 0 0 1 110.081 6.243 A 35.994 35.994 0 0 1 115.3 6.622 Q 119.4 7.222 123.3 8.822 Q 127.2 10.422 130.5 13.222 Q 133.3 15.522 134.75 18.722 Q 136.2 21.922 136.45 25.322 Q 136.7 28.722 135.8 32.022 A 20.5 20.5 0 0 1 135.294 33.622 A 17.163 17.163 0 0 1 133.1 37.822 Q 129.3 43.122 124.3 46.322 Q 119.3 49.522 113.9 51.522 A 15.238 15.238 0 0 1 113.467 51.7 A 12.859 12.859 0 0 1 112.55 52.022 A 2.872 2.872 0 0 0 112.39 52.076 Q 111.976 52.231 112.07 52.385 A 0.199 0.199 0 0 0 112.1 52.422 A 0.146 0.146 0 0 0 112.093 52.439 Q 112.036 52.598 112.488 52.656 A 3.231 3.231 0 0 0 112.65 52.672 Q 113.3 52.722 114.1 52.522 A 26.179 26.179 0 0 0 115.467 52.288 Q 116.653 52.054 117.991 51.69 A 54.237 54.237 0 0 0 120.7 50.872 A 29.47 29.47 0 0 0 123.065 49.979 A 33.929 33.929 0 0 0 128.2 47.222 A 28.076 28.076 0 0 0 129.788 46.112 A 31.018 31.018 0 0 0 134.95 41.172 A 21.668 21.668 0 0 0 137.341 37.648 Z M 41.492 13.988 A 2.247 2.247 0 0 0 41.4 14.022 A 19.748 19.748 0 0 1 39.904 14.427 Q 38.027 14.856 36.24 14.856 A 14.636 14.636 0 0 1 35.25 14.822 Q 32.3 14.622 29.4 14.422 A 76 76 0 0 0 22.815 14.131 A 70.874 70.874 0 0 0 20.4 14.172 A 20.81 20.81 0 0 0 19.543 14.219 A 21.692 21.692 0 0 0 11.8 16.322 L 11.2 16.722 A 1.414 1.414 0 0 0 11.146 16.76 Q 11.008 16.862 10.948 16.963 A 0.308 0.308 0 0 0 10.9 17.122 A 0.135 0.135 0 0 0 10.927 17.204 Q 11.001 17.303 11.27 17.349 A 2.332 2.332 0 0 0 11.45 17.372 A 55.963 55.963 0 0 0 11.601 17.386 Q 12.015 17.422 12.1 17.422 A 165.689 165.689 0 0 1 10.931 22.387 A 203.725 203.725 0 0 1 8.55 31.022 Q 6.4 38.222 4.7 45.422 Q 3 46.822 1.8 48.722 Q 0.6 50.622 0.1 53.522 A 0.799 0.799 0 0 0 0.042 53.68 Q 0.02 53.766 0.01 53.868 A 1.996 1.996 0 0 0 0 54.072 A 1.113 1.113 0 0 0 0.001 54.115 Q 0.013 54.422 0.2 54.422 A 0.193 0.193 0 0 0 0.327 54.374 Q 0.435 54.283 0.5 54.022 A 15.473 15.473 0 0 1 0.794 53.36 A 13.37 13.37 0 0 1 3.15 49.872 Q 4.8 48.122 6.75 46.922 Q 8.7 45.722 10.8 45.122 Q 12.9 44.522 15 44.422 A 36.314 36.314 0 0 1 16.1 44.406 A 36.665 36.665 0 0 1 21.6 44.822 Q 24.9 45.322 28.1 45.522 Q 28.909 45.573 29.7 45.572 A 22.244 22.244 0 0 0 34.2 45.122 A 9.542 9.542 0 0 0 37.078 44.013 A 11.883 11.883 0 0 0 39.5 42.122 A 0.664 0.664 0 0 0 39.655 41.885 A 0.739 0.739 0 0 0 39.7 41.622 A 0.289 0.289 0 0 0 39.696 41.573 Q 39.656 41.34 39.2 41.522 Q 37.1 42.322 34.9 42.472 Q 32.7 42.622 30.3 42.472 Q 27.9 42.322 25.3 41.972 Q 22.7 41.622 20 41.422 Q 20.7 38.522 21.4 35.222 Q 22.1 31.922 22.55 28.672 A 58.302 58.302 0 0 0 22.834 26.267 A 47.219 47.219 0 0 0 23.05 22.572 Q 23.08 20.873 22.879 19.476 A 12.121 12.121 0 0 0 22.5 17.722 Q 23.85 17.722 25.734 17.778 A 202.648 202.648 0 0 1 27.05 17.822 A 43.351 43.351 0 0 0 28.626 17.851 A 44.672 44.672 0 0 0 32.6 17.672 Q 35.4 17.422 37.85 16.722 A 11.57 11.57 0 0 0 38.163 16.628 Q 40.384 15.925 41.6 14.522 A 1.061 1.061 0 0 0 41.667 14.449 A 0.844 0.844 0 0 0 41.85 14.072 A 0.253 0.253 0 0 0 41.853 14.053 Q 41.877 13.853 41.492 13.988 Z M 344.1 29.122 L 343.8 29.622 A 11.403 11.403 0 0 1 342.608 30.952 Q 341.447 32.046 340.2 32.472 A 10.564 10.564 0 0 1 336.756 33.036 A 11.698 11.698 0 0 1 336.2 33.022 Q 334.1 32.922 331.95 32.472 Q 329.8 32.022 327.7 31.922 A 8.257 8.257 0 0 0 327.405 31.917 Q 324.753 31.917 322.1 33.622 A 9.9 9.9 0 0 0 319.89 35.61 Q 318.46 37.312 317.3 39.922 A 2.884 2.884 0 0 1 317.237 40.041 Q 316.995 40.474 316.904 40.186 A 0.544 0.544 0 0 1 316.9 40.172 A 1.31 1.31 0 0 1 316.857 39.958 Q 316.831 39.728 316.9 39.522 A 29.882 29.882 0 0 1 317.542 37.413 Q 317.916 36.336 318.341 35.428 A 15.513 15.513 0 0 1 318.8 34.522 Q 319.784 32.733 320.888 31.544 A 10.204 10.204 0 0 1 321.15 31.272 A 9.509 9.509 0 0 1 322.52 30.128 A 7.587 7.587 0 0 1 323.8 29.422 Q 325.2 28.822 326.7 28.622 A 99.469 99.469 0 0 0 329.035 19.181 A 89.375 89.375 0 0 0 329.35 17.472 Q 329.866 14.514 329.866 11.717 A 28.474 28.474 0 0 0 329.5 7.122 L 329.5 6.722 A 0.319 0.319 0 0 1 329.579 6.694 Q 329.716 6.667 329.853 6.779 A 0.661 0.661 0 0 1 329.9 6.822 A 1.758 1.758 0 0 1 329.977 6.904 Q 330.085 7.027 330.098 7.102 A 0.117 0.117 0 0 1 330.1 7.122 A 20.373 20.373 0 0 1 331.962 15.711 A 22.694 22.694 0 0 1 331.9 17.372 A 58.214 58.214 0 0 1 330.858 24.762 A 70.701 70.701 0 0 1 329.9 28.822 Q 330.4 28.922 330.7 28.922 L 331.4 28.922 A 136.676 136.676 0 0 0 332.005 25.536 A 163.365 163.365 0 0 0 332.35 23.372 A 100.225 100.225 0 0 0 332.908 19.131 A 86.735 86.735 0 0 0 333.05 17.722 A 43.142 43.142 0 0 0 333.194 15.633 Q 333.258 14.183 333.203 12.901 A 26.209 26.209 0 0 0 333.2 12.822 A 14.277 14.277 0 0 0 333.104 11.672 Q 332.931 10.313 332.5 9.522 A 5.248 5.248 0 0 1 332.442 9.336 Q 332.285 8.801 332.396 8.667 A 0.128 0.128 0 0 1 332.5 8.622 Q 332.7 8.622 332.8 8.822 Q 332.9 9.022 333.1 9.222 Q 334.5 10.622 335.3 13.022 A 24.378 24.378 0 0 1 336.317 17.452 A 27.388 27.388 0 0 1 336.4 18.122 Q 336.7 20.822 336.6 23.472 A 28.265 28.265 0 0 1 336.436 25.667 Q 336.31 26.748 336.101 27.693 A 16.227 16.227 0 0 1 336 28.122 L 335.6 29.722 A 1.301 1.301 0 0 0 335.853 29.855 A 0.959 0.959 0 0 0 336.2 29.922 A 1.887 1.887 0 0 1 336.798 30.021 A 2.009 2.009 0 0 1 336.8 30.022 Q 337.4 27.022 337.85 24.022 A 33.983 33.983 0 0 0 338.212 19.573 Q 338.218 19.244 338.218 18.912 A 39.29 39.29 0 0 0 338.2 17.722 Q 338.2 17.022 338.3 17.022 Q 338.459 17.022 338.555 17.213 A 0.822 0.822 0 0 1 338.6 17.322 Q 338.7 17.622 338.8 17.822 Q 340 20.022 339.95 23.322 A 55.105 55.105 0 0 1 339.712 27.603 A 66.315 66.315 0 0 1 339.4 30.322 A 8.007 8.007 0 0 0 343.459 29.205 A 9.517 9.517 0 0 0 343.6 29.122 Q 344.096 28.825 344.1 29.117 A 0.351 0.351 0 0 1 344.1 29.122 Z M 60.7 76.722 L 61 76.722 Q 61.1 76.722 61.3 76.622 Q 61.3 76.356 60.827 76.326 A 2.02 2.02 0 0 0 60.7 76.322 Q 57.2 75.922 54.45 72.822 A 15.4 15.4 0 0 1 51.203 66.861 A 19.005 19.005 0 0 1 50.8 65.222 Q 49.9 60.922 50.35 56.472 Q 50.8 52.022 51.9 48.122 Q 53.5 42.122 55.7 35.772 Q 57.9 29.422 59.45 23.222 A 60.452 60.452 0 0 0 60.943 14.91 A 51.794 51.794 0 0 0 61.2 11.272 A 27.378 27.378 0 0 0 61.217 10.32 Q 61.217 5.122 59.2 0.722 Q 59.007 0.626 58.907 0.298 A 1.558 1.558 0 0 1 58.9 0.272 A 0.922 0.922 0 0 0 58.867 0.175 Q 58.769 -0.062 58.6 0.022 A 0.166 0.166 0 0 0 58.492 0.056 Q 58.362 0.162 58.467 0.597 A 3.127 3.127 0 0 0 58.5 0.722 Q 59.23 4.92 58.711 9.742 A 40.948 40.948 0 0 1 58.6 10.672 A 81.951 81.951 0 0 1 57.093 18.834 A 95.166 95.166 0 0 1 56.35 21.772 Q 54.8 27.522 52.85 33.622 Q 50.9 39.722 49.2 45.822 A 49.364 49.364 0 0 0 47.649 53.498 A 55.947 55.947 0 0 0 47.45 55.372 A 33.068 33.068 0 0 0 47.319 58.309 A 34.129 34.129 0 0 0 48.1 65.522 A 16.903 16.903 0 0 0 49.298 69.001 A 14.973 14.973 0 0 0 49.95 70.222 A 14.662 14.662 0 0 0 51.93 72.854 A 12.957 12.957 0 0 0 52.9 73.772 Q 54.6 75.222 56.6 76.022 A 9.706 9.706 0 0 0 60.235 76.733 A 9.784 9.784 0 0 0 60.7 76.722 Z M 177.809 71.925 A 0.625 0.625 0 0 0 177.8 71.822 A 0.324 0.324 0 0 0 177.733 71.749 Q 177.495 71.557 176.85 71.772 Q 176.1 72.022 175.3 71.922 A 7.335 7.335 0 0 1 174.28 71.814 A 5.208 5.208 0 0 1 171.2 70.122 A 9.572 9.572 0 0 1 170.384 69.056 A 10.434 10.434 0 0 1 169.05 66.072 Q 168.4 63.722 168.3 61.322 A 40.623 40.623 0 0 1 168.28 60.735 Q 168.243 59.393 168.309 58.324 A 15.993 15.993 0 0 1 168.4 57.322 Q 168.588 55.635 169.185 53.615 A 35.589 35.589 0 0 1 170.05 51.072 Q 171.4 47.522 173.6 44.272 A 25.941 25.941 0 0 1 173.738 44.07 A 23.139 23.139 0 0 1 178.75 38.772 Q 181.7 36.522 185.2 36.522 A 5.915 5.915 0 0 1 186.058 36.582 A 3.897 3.897 0 0 1 188.8 38.222 Q 190 39.922 190.45 42.322 Q 190.9 44.722 190.85 47.272 A 66.37 66.37 0 0 1 190.803 48.801 Q 190.773 49.523 190.727 50.159 A 30.433 30.433 0 0 1 190.6 51.522 A 12.282 12.282 0 0 1 190.471 52.443 A 15.807 15.807 0 0 1 190.2 53.672 Q 189.9 54.822 189.65 55.872 A 140.151 140.151 0 0 0 189.625 55.976 Q 189.393 56.957 189.25 57.622 Q 189.157 58.056 189.237 58.259 A 0.26 0.26 0 0 0 189.4 58.422 Q 190 58.522 190.5 57.622 A 24.825 24.825 0 0 0 190.723 57.211 Q 191.07 56.558 191.3 56.022 A 52.725 52.725 0 0 0 191.414 55.727 Q 192.232 53.6 192.7 51.822 A 21.873 21.873 0 0 0 193.08 50.083 A 27.88 27.88 0 0 0 193.4 47.622 Q 193.613 46.135 193.599 44.421 A 28.445 28.445 0 0 0 193.55 42.972 A 17.648 17.648 0 0 0 193.486 42.184 A 15.343 15.343 0 0 0 192.55 38.222 Q 191.7 36.022 189.95 34.522 Q 188.829 33.561 187.236 33.216 A 9.134 9.134 0 0 0 185.3 33.022 A 15.042 15.042 0 0 0 184.219 33.061 A 11.881 11.881 0 0 0 177.7 35.472 Q 174.5 37.922 172.3 41.522 Q 170.1 45.122 168.9 49.222 A 64.775 64.775 0 0 0 168.656 50.078 Q 167.658 53.67 167.3 56.622 Q 167.1 58.522 167.05 61.322 A 22.345 22.345 0 0 0 167.046 61.721 A 20.543 20.543 0 0 0 167.65 66.722 A 12.415 12.415 0 0 0 167.735 67.044 A 10.631 10.631 0 0 0 169.95 71.222 A 5.558 5.558 0 0 0 172.74 72.941 A 8.364 8.364 0 0 0 174.7 73.222 Q 175.8 73.222 176.85 72.822 Q 177.809 72.457 177.809 71.925 Z M 244.163 76.666 A 1.66 1.66 0 0 0 244.1 76.622 Q 241.2 74.222 238.95 70.972 Q 236.7 67.722 235 63.972 Q 233.3 60.222 232.1 56.272 A 77.373 77.373 0 0 1 231.808 55.287 A 69.92 69.92 0 0 1 230.2 48.522 Q 229.1 42.622 228.55 36.372 Q 228 30.122 227.2 24.172 A 85.895 85.895 0 0 0 226.932 22.327 A 76.478 76.478 0 0 0 224.85 12.872 A 33.83 33.83 0 0 0 224.598 12.043 A 29.71 29.71 0 0 0 220.2 3.322 A 2.276 2.276 0 0 0 220.196 3.313 Q 220.096 3.116 219.9 2.822 A 1.588 1.588 0 0 0 219.861 2.766 Q 219.716 2.568 219.629 2.602 A 0.087 0.087 0 0 0 219.6 2.622 Q 219.4 2.822 219.45 2.972 A 1.815 1.815 0 0 0 219.476 3.045 Q 219.523 3.169 219.6 3.322 A 45.161 45.161 0 0 1 220.838 6.742 A 53.769 53.769 0 0 1 222.4 12.972 A 173.76 173.76 0 0 1 222.884 15.628 A 196.485 196.485 0 0 1 224.15 23.972 Q 224.9 29.722 225.5 35.722 Q 226.1 41.722 227.2 47.722 Q 228 52.022 229.2 56.422 Q 230.4 60.822 232.35 64.722 Q 234.3 68.622 237.1 71.772 Q 239.9 74.922 243.8 76.722 A 1.752 1.752 0 0 0 243.889 76.778 Q 244.123 76.915 244.25 76.872 A 0.156 0.156 0 0 0 244.259 76.869 Q 244.375 76.822 244.163 76.666 Z M 16.8 55.222 L 16.2 55.222 Q 15.5 57.622 14.75 59.772 Q 14 61.922 13.3 63.922 A 23.248 23.248 0 0 1 15.028 63.417 A 18.802 18.802 0 0 1 16.15 63.172 A 10.93 10.93 0 0 1 18.025 62.994 Q 18.504 62.989 19 63.022 Q 21.9 63.122 24.8 63.622 A 130.243 130.243 0 0 0 30.106 64.428 A 119.017 119.017 0 0 0 30.45 64.472 Q 32.856 64.778 35.109 64.778 A 32.679 32.679 0 0 0 35.75 64.772 Q 38.3 64.722 40.5 63.622 A 0.458 0.458 0 0 1 40.536 63.606 Q 40.676 63.551 40.696 63.674 A 0.293 0.293 0 0 1 40.7 63.722 A 0.851 0.851 0 0 1 40.641 64.028 A 1.045 1.045 0 0 1 40.6 64.122 A 11.369 11.369 0 0 1 38.664 65.827 A 8.397 8.397 0 0 1 35.75 67.122 Q 33.1 67.722 30.2 67.572 Q 27.3 67.422 24.3 66.822 A 30.053 30.053 0 0 0 18.445 66.222 A 28.215 28.215 0 0 0 18.4 66.222 Q 15.795 66.152 13.116 67.023 A 19.84 19.84 0 0 0 10.85 67.922 A 13.47 13.47 0 0 0 6.43 71.296 A 18.548 18.548 0 0 0 4.4 74.122 A 4.826 4.826 0 0 1 4.295 74.258 Q 4.093 74.507 4.01 74.521 A 0.058 0.058 0 0 1 4 74.522 A 0.054 0.054 0 0 1 3.949 74.487 Q 3.92 74.425 3.945 74.255 A 1.713 1.713 0 0 1 3.95 74.222 Q 4 73.922 4 73.822 A 18.067 18.067 0 0 1 4.245 73.184 Q 4.482 72.603 4.699 72.212 A 4.962 4.962 0 0 1 4.75 72.122 Q 5.051 71.607 5.389 70.943 A 34.103 34.103 0 0 0 5.5 70.722 Q 4.1 67.922 3.5 65.072 A 33.931 33.931 0 0 1 2.819 59.605 A 37.555 37.555 0 0 1 2.8 59.122 Q 2.8 57.244 3.067 56.166 A 4.38 4.38 0 0 1 3.2 55.722 A 2.187 2.187 0 0 1 3.605 55.06 Q 4.283 54.266 5.9 53.422 Q 9.7 51.422 14 51.422 Q 18.3 51.422 22.6 51.922 Q 25.4 52.222 28.2 52.372 A 13.716 13.716 0 0 0 28.934 52.392 Q 31.391 52.392 34 51.522 Q 34.481 51.33 34.407 51.647 A 0.558 0.558 0 0 1 34.4 51.672 Q 34.312 51.981 34.146 52.173 A 0.927 0.927 0 0 1 34.1 52.222 A 6.24 6.24 0 0 1 31.651 54.033 A 8.266 8.266 0 0 1 30.5 54.422 Q 28.2 55.022 25.6 55.172 Q 23 55.322 20.6 55.222 A 63.331 63.331 0 0 0 19.598 55.188 Q 18.047 55.148 17.002 55.209 A 15.653 15.653 0 0 0 16.8 55.222 Z M 268.899 14.099 A 27.355 27.355 0 0 0 267.2 8.622 A 6.894 6.894 0 0 0 267.142 8.528 Q 266.949 8.217 266.851 8.144 A 0.092 0.092 0 0 0 266.8 8.122 Q 266.619 8.032 266.766 8.762 A 8.287 8.287 0 0 0 266.8 8.922 Q 267.5 12.422 267.35 16.072 Q 267.2 19.722 266.45 23.422 Q 265.7 27.122 264.5 30.622 Q 263.3 34.122 261.8 37.322 Q 259.5 42.422 256.65 47.372 Q 253.8 52.322 251.35 57.222 A 80.178 80.178 0 0 0 250.751 58.446 A 71.886 71.886 0 0 0 247.3 66.972 Q 245.7 71.822 245.9 76.622 A 0.593 0.593 0 0 0 245.91 76.734 Q 245.95 76.942 246.15 77.022 A 0.259 0.259 0 0 0 246.163 77.027 Q 246.364 77.095 246.532 76.773 A 1.659 1.659 0 0 0 246.6 76.622 A 51.038 51.038 0 0 1 247.342 74.248 A 58.843 58.843 0 0 1 249.85 68.072 Q 251.9 63.722 254.3 59.122 Q 256.7 54.522 259.25 49.722 Q 261.8 44.922 264.1 39.922 Q 265.8 36.222 267.15 32.322 Q 268.5 28.422 269.05 24.472 A 34.966 34.966 0 0 0 269.386 19.644 A 34.791 34.791 0 0 0 269.25 16.572 A 24.051 24.051 0 0 0 268.899 14.099 Z M 142.096 79.008 A 3.278 3.278 0 0 0 142 79.022 A 24.293 24.293 0 0 1 138.786 79.236 A 24.855 24.855 0 0 1 135.95 79.072 Q 132.9 78.722 130.1 77.922 A 38.527 38.527 0 0 1 129.319 77.69 A 34.354 34.354 0 0 1 124.85 75.972 A 29.375 29.375 0 0 1 123.09 75.075 A 23.86 23.86 0 0 1 120.5 73.422 Q 117.1 70.922 114.1 67.672 Q 111.1 64.422 108 61.522 A 51.62 51.62 0 0 0 107.026 60.634 A 45.875 45.875 0 0 0 101.6 56.472 Q 98.3 54.322 94.3 54.022 L 93.85 54.022 Q 93.7 54.022 93.64 54.058 A 0.072 0.072 0 0 0 93.6 54.122 A 0.138 0.138 0 0 0 93.615 54.177 Q 93.655 54.263 93.798 54.417 A 3.984 3.984 0 0 0 93.9 54.522 A 71.868 71.868 0 0 0 93.951 54.548 Q 94.336 54.74 94.685 54.908 A 43.699 43.699 0 0 0 95.35 55.222 A 15.713 15.713 0 0 1 95.845 55.461 A 18.79 18.79 0 0 1 96.7 55.922 Q 96 58.822 95.8 61.722 Q 95.6 64.622 95.4 67.422 L 95.4 68.372 Q 95.4 68.65 95.476 68.795 A 0.285 0.285 0 0 0 95.6 68.922 A 0.214 0.214 0 0 0 95.613 68.928 Q 95.806 69.01 96 68.622 Q 96.2 68.222 96.4 67.722 A 370.99 370.99 0 0 0 96.8 66.487 Q 97.408 64.596 98.07 62.473 A 648.589 648.589 0 0 0 99.5 57.822 A 36.355 36.355 0 0 1 100.501 58.59 A 41.151 41.151 0 0 1 104 61.722 Q 106.2 63.922 108.4 66.272 Q 110.6 68.622 112.95 70.972 Q 115.3 73.322 117.9 75.222 A 31.206 31.206 0 0 0 119.324 76.198 A 36.427 36.427 0 0 0 122.8 78.172 Q 125.5 79.522 128.6 80.272 A 22.673 22.673 0 0 0 128.643 80.283 Q 131.358 80.934 134.304 80.934 A 27.069 27.069 0 0 0 135.1 80.922 Q 138.5 80.822 142.1 79.522 Q 142.444 79.385 142.551 79.247 A 0.203 0.203 0 0 0 142.6 79.122 A 0.101 0.101 0 0 0 142.579 79.057 Q 142.496 78.953 142.096 79.008 Z M 284.2 71.022 L 284.3 71.022 L 284.6 71.322 A 7.234 7.234 0 0 0 286.957 73.6 A 10.48 10.48 0 0 0 289.05 74.572 A 9.116 9.116 0 0 0 291.414 75.038 Q 293.624 75.187 296.3 74.422 Q 298.4 73.822 300 72.322 Q 301.6 70.822 302.65 68.972 Q 303.7 67.122 304.25 65.122 Q 304.8 63.122 304.9 61.422 A 44.597 44.597 0 0 0 304.929 59.83 A 42.369 42.369 0 0 0 304.75 55.922 Q 304.5 53.222 304.15 50.672 A 154.888 154.888 0 0 1 303.614 46.325 A 140.499 140.499 0 0 1 303.55 45.722 A 25.428 25.428 0 0 1 303.411 43.086 A 23.817 23.817 0 0 1 303.5 41.022 Q 303.641 39.259 304.279 38.093 A 4.37 4.37 0 0 1 304.9 37.222 Q 306.1 35.922 307.85 35.572 Q 309.324 35.277 310.904 35.656 A 8.78 8.78 0 0 1 311.5 35.822 Q 313.4 36.422 315 37.722 A 0.988 0.988 0 0 1 315.132 37.801 Q 315.364 37.966 315.31 38.189 A 0.423 0.423 0 0 1 315.3 38.222 A 0.292 0.292 0 0 1 315.296 38.271 Q 315.273 38.409 315.1 38.322 L 314.7 38.122 Q 311.476 37.077 309.505 37.322 A 4.885 4.885 0 0 0 308.95 37.422 Q 306.9 37.922 306.7 41.022 Q 306.521 44.245 307.103 48.469 A 61.609 61.609 0 0 0 307.25 49.472 A 50.115 50.115 0 0 1 307.755 54.448 Q 307.842 56.068 307.842 57.785 A 71.968 71.968 0 0 1 307.8 60.222 Q 307.9 62.222 307.35 64.822 Q 306.8 67.422 305.55 69.872 Q 304.3 72.322 302.25 74.222 Q 300.2 76.122 297.4 76.622 Q 292.1 77.422 288.95 76.022 A 9.519 9.519 0 0 1 286.167 74.18 A 8.568 8.568 0 0 1 284.4 71.722 A 19.684 19.684 0 0 1 284.332 71.515 Q 284.218 71.16 284.203 71.051 A 0.209 0.209 0 0 1 284.2 71.022 Z M 164.084 51.691 A 34.373 34.373 0 0 0 163.4 55.822 A 59.352 59.352 0 0 0 163.246 57.857 Q 163.099 60.394 163.209 62.575 A 29.818 29.818 0 0 0 163.45 65.172 Q 163.759 67.394 164.354 69.173 A 14.05 14.05 0 0 0 165.45 71.672 A 11.673 11.673 0 0 0 166.583 73.331 A 8.671 8.671 0 0 0 169.05 75.422 A 9.167 9.167 0 0 0 170.888 76.199 A 10.427 10.427 0 0 0 173.9 76.622 Q 177.5 76.622 181.4 74.872 A 21.847 21.847 0 0 0 184.968 72.836 A 27.583 27.583 0 0 0 188.8 69.572 Q 192.3 66.022 194.9 60.722 A 34.053 34.053 0 0 0 197.183 54.555 A 46.68 46.68 0 0 0 198.4 48.222 Q 198.8 45.122 198.4 41.672 A 22.725 22.725 0 0 0 198.346 41.243 A 20.128 20.128 0 0 0 196.6 35.272 Q 195.2 32.322 192.6 30.422 Q 190 28.522 186 28.522 A 19.514 19.514 0 0 0 184.655 28.568 A 15.676 15.676 0 0 0 176.7 31.272 Q 172.7 34.022 169.85 38.122 Q 167 42.222 165.4 47.022 A 56.595 56.595 0 0 0 165.202 47.628 Q 164.525 49.739 164.084 51.691 Z M 93.393 11.628 A 15.369 15.369 0 0 0 88.7 16.022 Q 88.569 16.153 88.416 16.349 A 6.598 6.598 0 0 0 88.25 16.572 A 1.33 1.33 0 0 0 88.249 16.574 Q 88.043 16.863 88.145 16.981 A 0.175 0.175 0 0 0 88.2 17.022 Q 88.456 17.278 89.147 16.735 A 5.466 5.466 0 0 0 89.4 16.522 A 25.07 25.07 0 0 1 92.936 14.45 A 32.291 32.291 0 0 1 97.5 12.672 Q 102.2 11.222 107.15 10.972 A 37.629 37.629 0 0 1 109.048 10.924 A 36.636 36.636 0 0 1 116.9 11.772 A 28.85 28.85 0 0 1 118.157 12.077 A 24.919 24.919 0 0 1 125.5 15.322 A 12.545 12.545 0 0 1 126.862 16.409 A 15.557 15.557 0 0 1 128.5 18.172 Q 129.9 19.922 130.75 22.122 A 14.491 14.491 0 0 1 131.131 23.244 A 16.127 16.127 0 0 1 131.75 26.872 Q 131.789 27.543 131.763 28.218 A 14.87 14.87 0 0 1 131.1 32.022 Q 130.95 32.397 130.631 33.053 A 45.641 45.641 0 0 1 130.4 33.522 A 10.959 10.959 0 0 0 130.391 33.541 Q 129.902 34.523 130.1 34.622 Q 130.27 34.792 130.871 34.134 A 8.59 8.59 0 0 0 131.1 33.872 A 27.39 27.39 0 0 0 131.216 33.734 Q 131.738 33.106 131.973 32.74 A 2.372 2.372 0 0 0 132.1 32.522 A 16.014 16.014 0 0 0 132.108 32.508 A 16.715 16.715 0 0 0 133.65 28.622 A 15.628 15.628 0 0 0 134.154 24.646 A 16.831 16.831 0 0 0 134.15 24.272 Q 134.1 22.022 133.25 19.872 A 13.648 13.648 0 0 0 132.874 19.009 A 14.937 14.937 0 0 0 130.8 15.822 A 17.987 17.987 0 0 0 128.828 13.913 A 21.243 21.243 0 0 0 125.05 11.422 Q 121.6 9.622 117.6 8.722 Q 113.6 7.822 109.35 7.722 Q 105.1 7.622 101.2 8.522 A 30.083 30.083 0 0 0 100.957 8.579 A 27.016 27.016 0 0 0 94 11.272 A 18.038 18.038 0 0 0 93.393 11.628 Z M 64 44.222 A 309.608 309.608 0 0 0 63.815 44.822 Q 63.047 47.312 62.6 48.922 Q 61.8 51.422 61.1 54.072 A 254.412 254.412 0 0 0 60.927 54.732 A 231.307 231.307 0 0 0 59.8 59.222 A 66.952 66.952 0 0 0 59.385 61.062 A 55.839 55.839 0 0 0 58.85 63.972 Q 58.664 65.168 58.577 66.236 A 22.015 22.015 0 0 0 58.5 68.022 A 7.431 7.431 0 0 1 58.491 68.414 Q 58.461 68.977 58.336 69.195 A 0.259 0.259 0 0 1 58.2 69.322 Q 57.9 69.322 57.5 68.022 Q 56.5 64.422 56.75 60.522 A 44.65 44.65 0 0 1 56.803 59.79 A 48.748 48.748 0 0 1 57.95 52.572 Q 58.9 48.522 60.25 44.422 Q 61.6 40.322 62.9 36.222 Q 64.6 31.022 66.1 24.622 Q 67.6 18.222 67.4 11.822 Q 67.4 11.084 67.656 11.283 A 0.482 0.482 0 0 1 67.7 11.322 A 2.381 2.381 0 0 1 67.777 11.403 Q 67.885 11.522 67.962 11.641 A 1.246 1.246 0 0 1 68.1 11.922 Q 68.677 13.139 68.945 14.808 A 18.503 18.503 0 0 1 69.15 16.822 Q 69.23 18.425 69.139 20.184 A 43.092 43.092 0 0 1 68.85 23.372 A 70.041 70.041 0 0 1 68.7 24.486 A 77.951 77.951 0 0 1 67.55 30.672 Q 66.7 34.422 65.8 37.872 Q 64.9 41.322 64 44.222 Z M 195.6 48.922 A 30.144 30.144 0 0 0 195.779 45.79 Q 195.788 44.535 195.7 43.222 A 18.205 18.205 0 0 0 194.973 39.142 A 16.18 16.18 0 0 0 194.45 37.672 Q 193.4 35.122 191.25 33.422 A 7.558 7.558 0 0 0 188.336 32.03 Q 187.246 31.761 185.969 31.727 A 13.976 13.976 0 0 0 185.6 31.722 A 14.586 14.586 0 0 0 180.85 32.474 A 12.94 12.94 0 0 0 177.4 34.272 Q 173.9 36.822 171.4 40.572 Q 168.9 44.322 167.5 48.572 Q 166.1 52.822 165.7 56.322 Q 165.196 60.351 165.432 63.464 A 22.326 22.326 0 0 0 165.55 64.622 A 22.927 22.927 0 0 0 165.993 67.071 Q 166.279 68.256 166.679 69.249 A 11.575 11.575 0 0 0 167.2 70.372 Q 168.4 72.622 170.25 73.722 Q 172.1 74.822 174.3 74.822 Q 177.4 74.922 180.85 73.072 A 22.164 22.164 0 0 0 185.184 69.998 A 27.655 27.655 0 0 0 187.3 67.872 A 29.6 29.6 0 0 0 190.518 63.497 A 38.598 38.598 0 0 0 192.55 59.672 A 35.716 35.716 0 0 0 195.073 51.983 A 42.53 42.53 0 0 0 195.6 48.922 Z M 242.05 72.522 A 164.382 164.382 0 0 0 242.247 72.729 Q 243.063 73.586 243.6 74.122 Q 244.1 74.622 244.4 74.622 Q 244.646 74.622 244.69 74.151 A 2.465 2.465 0 0 0 244.7 73.922 A 6.094 6.094 0 0 1 244.704 73.718 Q 244.732 72.871 244.99 71.679 A 24.564 24.564 0 0 1 245.3 70.422 Q 245.9 68.222 246.85 65.572 Q 247.8 62.922 248.9 60.122 Q 250 57.322 251 54.872 A 123.907 123.907 0 0 1 251.605 53.414 Q 252.25 51.891 252.8 50.722 Q 253.413 49.421 253.732 48.764 A 35.463 35.463 0 0 1 253.9 48.422 Q 254.5 47.322 255.25 45.722 A 58.031 58.031 0 0 0 255.437 45.32 A 63.936 63.936 0 0 0 256.7 42.372 Q 257.4 40.622 258.05 39.022 A 64.662 64.662 0 0 0 258.432 38.061 Q 258.611 37.6 258.765 37.178 A 35.196 35.196 0 0 0 259.1 36.222 Q 259.2 35.922 259.45 35.072 A 4.334 4.334 0 0 0 259.491 34.925 Q 259.673 34.213 259.4 34.122 Q 259.233 34.039 258.786 34.514 A 6.152 6.152 0 0 0 258.6 34.722 A 64.302 64.302 0 0 1 258.394 34.962 Q 258.079 35.326 257.907 35.511 A 4.338 4.338 0 0 1 257.8 35.622 A 145.227 145.227 0 0 0 256.604 37.331 A 163.227 163.227 0 0 0 251.5 45.222 Q 248.4 50.322 246.1 55.422 Q 245 57.922 244.15 60.922 A 17.334 17.334 0 0 0 243.674 63.189 Q 243.462 64.666 243.462 66.304 A 26.995 26.995 0 0 0 243.5 67.722 Q 243.5 68.022 243.55 68.672 Q 243.6 69.322 243.65 70.022 A 90.203 90.203 0 0 0 243.657 70.115 Q 243.68 70.435 243.703 70.724 A 53.972 53.972 0 0 0 243.75 71.272 Q 243.789 71.7 243.737 71.795 A 0.043 0.043 0 0 1 243.7 71.822 Q 243.614 71.908 243.123 71.22 A 15.202 15.202 0 0 1 242.95 70.972 A 11.128 11.128 0 0 1 242.929 70.942 Q 242.29 70.001 241.7 68.722 A 25.972 25.972 0 0 0 241.565 68.38 A 23.298 23.298 0 0 0 240.6 66.272 A 55.166 55.166 0 0 0 240.581 66.236 Q 240.284 65.668 239.939 65.04 A 90.306 90.306 0 0 0 239.2 63.722 A 1.31 1.31 0 0 1 239.102 63.611 Q 238.931 63.395 238.7 62.972 A 33.222 33.222 0 0 1 238.625 62.834 A 36.836 36.836 0 0 1 238.1 61.822 A 7.217 7.217 0 0 0 237.828 61.326 A 5.645 5.645 0 0 0 237.45 60.772 A 7.35 7.35 0 0 0 237.394 60.701 Q 237.159 60.406 237.051 60.341 A 0.105 0.105 0 0 0 237 60.322 A 0.157 0.157 0 0 0 236.949 60.351 Q 236.752 60.516 236.9 61.403 A 8.735 8.735 0 0 0 236.95 61.672 A 15.788 15.788 0 0 0 237.059 62.174 Q 237.307 63.235 237.75 64.522 A 45.816 45.816 0 0 0 237.819 64.722 A 49.945 49.945 0 0 0 239 67.772 Q 239.459 68.855 239.876 69.658 A 14.157 14.157 0 0 0 240.3 70.422 Q 241.1 71.522 242.05 72.522 Z M 368.739 31.565 A 0.511 0.511 0 0 0 368.7 31.522 A 0.15 0.15 0 0 0 368.643 31.492 Q 368.467 31.433 367.836 31.424 A 16.799 16.799 0 0 0 367.6 31.422 A 12.044 12.044 0 0 0 364.569 31.938 A 16.115 16.115 0 0 0 361.8 33.072 A 26.682 26.682 0 0 0 360.499 33.791 A 29.733 29.733 0 0 0 356.05 37.022 Q 353.3 39.422 351.1 42.272 A 32.94 32.94 0 0 0 350.964 42.45 Q 348.866 45.207 347.8 47.822 A 63.568 63.568 0 0 0 347.713 48.041 A 58.274 58.274 0 0 0 345.5 54.772 Q 344.6 58.222 344.4 61.722 Q 344.339 62.822 344.446 64.09 A 24.176 24.176 0 0 0 344.65 65.772 Q 345 68.022 345.95 69.672 A 6.116 6.116 0 0 0 345.995 69.749 A 4.842 4.842 0 0 0 348.6 71.922 A 2.897 2.897 0 0 0 348.661 71.943 Q 349.962 72.37 351.724 71.587 A 9.965 9.965 0 0 0 352.8 71.022 Q 352.878 70.944 353.109 70.744 A 30.875 30.875 0 0 1 353.25 70.622 Q 353.6 70.322 354 69.972 Q 354.231 69.77 354.412 69.584 A 4.531 4.531 0 0 0 354.65 69.322 Q 354.9 69.022 354.8 68.822 A 0.376 0.376 0 0 0 354.754 68.826 Q 354.662 68.837 354.472 68.888 A 7.775 7.775 0 0 0 354.35 68.922 Q 354 69.022 353.6 69.172 L 352.8 69.472 A 8.172 8.172 0 0 1 352.655 69.525 Q 352.38 69.622 352.3 69.622 Q 350.3 69.922 349.3 69.222 A 3.435 3.435 0 0 1 348.423 68.333 A 4.108 4.108 0 0 1 347.9 67.222 A 8.697 8.697 0 0 1 347.597 65.812 A 11.664 11.664 0 0 1 347.5 64.272 L 347.5 61.122 Q 347.5 60.663 347.676 59.647 A 34.728 34.728 0 0 1 347.8 58.972 A 25.035 25.035 0 0 1 347.96 58.213 Q 348.109 57.552 348.312 56.8 A 52.499 52.499 0 0 1 348.75 55.272 Q 349.085 54.164 349.527 52.935 A 66.828 66.828 0 0 1 350.45 50.522 A 43.075 43.075 0 0 1 351.076 49.052 A 49.77 49.77 0 0 1 353 45.222 Q 354.5 42.622 356.5 40.372 A 42.187 42.187 0 0 1 357.881 38.89 A 35.059 35.059 0 0 1 360.55 36.422 A 42.963 42.963 0 0 1 360.582 36.396 Q 362.614 34.714 364.45 33.622 Q 365.664 32.9 366.641 32.48 A 9.547 9.547 0 0 1 367.6 32.122 A 30.825 30.825 0 0 0 367.875 32.052 Q 368.293 31.944 368.514 31.871 A 2.363 2.363 0 0 0 368.65 31.822 Q 368.872 31.733 368.739 31.565 Z M 173.979 69.787 A 1.547 1.547 0 0 0 174.6 69.922 A 4.251 4.251 0 0 0 175.418 69.84 Q 176.028 69.721 176.676 69.427 A 8.662 8.662 0 0 0 177.85 68.772 A 18.15 18.15 0 0 0 178.176 68.553 A 19.695 19.695 0 0 0 181.15 66.022 Q 182.7 64.422 183.9 62.672 A 40.498 40.498 0 0 0 184.623 61.583 Q 185.297 60.528 185.7 59.722 Q 186.9 57.122 187.75 54.572 Q 188.6 52.022 189 49.322 A 10.771 10.771 0 0 0 189.018 49.211 Q 189.142 48.416 189.204 47.27 A 40.311 40.311 0 0 0 189.25 46.072 A 18.632 18.632 0 0 0 189.256 45.618 A 17.6 17.6 0 0 0 188.9 42.072 Q 188.5 40.122 187.55 38.772 A 3.016 3.016 0 0 0 185.869 37.575 A 4.231 4.231 0 0 0 184.7 37.422 A 7.496 7.496 0 0 0 183.581 37.506 A 8.092 8.092 0 0 0 181 38.372 Q 179.2 39.322 177.7 40.772 Q 176.2 42.222 175.2 44.072 Q 174.2 45.922 173.9 47.822 A 16.569 16.569 0 0 0 173.903 48.138 Q 173.922 49.151 174.072 49.423 A 0.155 0.155 0 0 0 174.2 49.522 Q 174.369 49.522 174.751 48.312 A 25.812 25.812 0 0 0 174.9 47.822 A 9.998 9.998 0 0 1 175.199 46.89 A 11.437 11.437 0 0 1 176.2 44.872 Q 177.1 43.422 178.25 42.222 Q 179.4 41.022 180.7 40.272 Q 181.274 39.941 181.828 39.756 A 4.321 4.321 0 0 1 183.2 39.522 A 1.847 1.847 0 0 1 184.659 40.229 Q 185.176 40.838 185.5 41.972 A 8.537 8.537 0 0 1 185.657 42.619 Q 186.037 44.493 185.842 47.35 A 37.118 37.118 0 0 1 185.7 48.922 A 17.049 17.049 0 0 1 185.645 49.363 Q 185.541 50.115 185.35 51.072 A 36.827 36.827 0 0 1 185.342 51.111 A 40.004 40.004 0 0 1 184.75 53.622 Q 184.4 54.922 184 56.172 A 22.12 22.12 0 0 1 183.797 56.778 Q 183.648 57.199 183.5 57.559 A 10.148 10.148 0 0 1 183.2 58.222 A 19.052 19.052 0 0 1 183.169 58.283 Q 182.87 58.877 182.291 59.928 A 149.466 149.466 0 0 1 181.85 60.722 A 33.286 33.286 0 0 1 181.292 61.682 A 38.621 38.621 0 0 1 179.65 64.172 Q 178.4 65.922 177.05 67.222 Q 176.164 68.075 175.429 68.369 A 1.97 1.97 0 0 1 174.7 68.522 A 0.95 0.95 0 0 1 174.159 68.346 Q 173.866 68.147 173.6 67.722 Q 173.156 67.011 172.869 67.011 A 0.217 0.217 0 0 0 172.8 67.022 Q 172.3 67.222 172.4 67.722 A 2.821 2.821 0 0 0 172.526 68.16 A 3.448 3.448 0 0 0 172.8 68.722 Q 173.1 69.222 173.6 69.572 A 2.175 2.175 0 0 0 173.979 69.787 Z M 103.9 51.722 L 107.8 50.022 A 290.189 290.189 0 0 1 109.023 49.455 Q 109.574 49.201 110.193 48.918 A 606.016 606.016 0 0 1 111.5 48.322 Q 113.7 47.322 115.7 46.422 A 72.03 72.03 0 0 1 117.13 45.796 Q 117.838 45.496 118.469 45.249 A 37.037 37.037 0 0 1 119.2 44.972 A 33.99 33.99 0 0 1 119.502 44.863 Q 120.599 44.472 120.774 44.51 A 0.052 0.052 0 0 1 120.8 44.522 Q 120.9 44.722 120.45 45.222 Q 120.108 45.603 119.592 46.041 A 15.074 15.074 0 0 1 119.25 46.322 A 35.248 35.248 0 0 1 118.242 47.1 A 29.845 29.845 0 0 1 117.8 47.422 Q 117.1 47.922 116.8 48.022 Q 114.9 49.122 113.25 50.072 Q 111.6 51.022 109.9 51.822 A 21.012 21.012 0 0 1 112.519 53.072 A 26.978 26.978 0 0 1 114.6 54.372 Q 117 56.022 119.2 57.922 Q 121.4 59.822 123.3 61.572 Q 125.2 63.322 126.5 64.422 Q 129.3 66.922 131.85 70.022 Q 134.084 72.738 136.203 74.533 A 23.293 23.293 0 0 0 136.8 75.022 Q 137.5 75.722 137.4 76.022 A 0.464 0.464 0 0 1 137.26 76.12 Q 137.137 76.175 136.985 76.145 A 0.696 0.696 0 0 1 136.9 76.122 Q 136.642 76.036 136.311 75.95 A 13.328 13.328 0 0 0 136.2 75.922 Q 133.5 75.022 131.15 73.422 Q 128.8 71.822 126.6 69.822 Q 124.4 67.822 122.35 65.622 Q 120.3 63.422 118.2 61.322 Q 116.8 59.922 115.15 58.222 Q 113.5 56.522 111.7 55.072 A 20.032 20.032 0 0 0 108.435 52.918 A 18.406 18.406 0 0 0 107.95 52.672 Q 106 51.722 103.9 51.722 Z M 151.1 76.622 Q 149.2 74.622 148.2 72.172 Q 147.2 69.722 146.8 67.172 A 22.05 22.05 0 0 1 146.533 63.75 A 22.52 22.52 0 0 1 146.6 62.022 A 28.906 28.906 0 0 1 147.109 58.365 A 25.229 25.229 0 0 1 147.4 57.122 Q 148.3 53.522 149.7 49.922 Q 151.1 46.322 152.1 42.772 A 31.06 31.06 0 0 0 153.198 36.65 A 28.455 28.455 0 0 0 153.25 35.772 A 13.589 13.589 0 0 0 153.263 35.182 Q 153.263 32.248 151.988 29.423 A 16.151 16.151 0 0 0 151.8 29.022 Q 151.5 28.522 151.4 28.522 A 0.092 0.092 0 0 0 151.348 28.537 Q 151.312 28.561 151.303 28.625 A 0.346 0.346 0 0 0 151.3 28.672 A 0.37 0.37 0 0 0 151.323 28.804 A 0.332 0.332 0 0 0 151.4 28.922 Q 151.674 31.66 151.115 34.564 A 22.604 22.604 0 0 1 151 35.122 Q 150.3 38.322 149.2 41.672 Q 148.1 45.022 146.75 48.572 Q 145.4 52.122 144.5 55.822 Q 143.8 58.522 143.55 61.322 Q 143.3 64.122 143.9 66.872 A 16.013 16.013 0 0 0 146.075 72.083 A 17.978 17.978 0 0 0 146.1 72.122 A 14.449 14.449 0 0 0 148.195 74.666 Q 149.259 75.704 150.612 76.661 A 23.612 23.612 0 0 0 150.7 76.722 A 0.885 0.885 0 0 0 151.153 76.963 A 1.094 1.094 0 0 0 151.2 76.972 Q 151.5 77.022 151.1 76.622 Z M 275.5 76.622 Q 273.6 74.622 272.6 72.172 Q 271.6 69.722 271.2 67.172 A 22.05 22.05 0 0 1 270.933 63.75 A 22.52 22.52 0 0 1 271 62.022 A 28.906 28.906 0 0 1 271.509 58.365 A 25.229 25.229 0 0 1 271.8 57.122 Q 272.7 53.522 274.1 49.922 Q 275.5 46.322 276.5 42.772 A 31.06 31.06 0 0 0 277.598 36.65 A 28.455 28.455 0 0 0 277.65 35.772 A 13.589 13.589 0 0 0 277.663 35.182 Q 277.663 32.248 276.388 29.423 A 16.151 16.151 0 0 0 276.2 29.022 Q 275.9 28.522 275.8 28.522 A 0.092 0.092 0 0 0 275.748 28.537 Q 275.712 28.561 275.703 28.625 A 0.346 0.346 0 0 0 275.7 28.672 A 0.37 0.37 0 0 0 275.723 28.804 A 0.332 0.332 0 0 0 275.8 28.922 Q 276.074 31.66 275.515 34.564 A 22.604 22.604 0 0 1 275.4 35.122 Q 274.7 38.322 273.6 41.672 Q 272.5 45.022 271.15 48.572 Q 269.8 52.122 268.9 55.822 Q 268.2 58.522 267.95 61.322 Q 267.7 64.122 268.3 66.872 A 16.013 16.013 0 0 0 270.475 72.083 A 17.978 17.978 0 0 0 270.5 72.122 A 14.449 14.449 0 0 0 272.595 74.666 Q 273.659 75.704 275.012 76.661 A 23.612 23.612 0 0 0 275.1 76.722 A 0.885 0.885 0 0 0 275.553 76.963 A 1.094 1.094 0 0 0 275.6 76.972 Q 275.9 77.022 275.5 76.622 Z M 64.9 24.522 A 20.236 20.236 0 0 0 65.321 22.578 Q 65.581 21.043 65.7 19.172 Q 65.9 16.022 65.7 12.872 Q 65.5 9.722 64.75 6.922 A 13.016 13.016 0 0 0 64.114 5.078 Q 63.461 3.583 62.5 2.622 A 2.966 2.966 0 0 0 62.31 2.447 Q 61.843 2.055 61.55 2.222 Q 61.207 2.418 61.681 3.192 A 4.283 4.283 0 0 0 61.7 3.222 Q 62.7 5.022 62.65 8.772 A 60.159 60.159 0 0 1 62.42 13.197 A 77.488 77.488 0 0 1 62 16.922 Q 61.4 21.322 60.4 25.722 Q 59.541 29.503 58.681 32.472 A 79.445 79.445 0 0 1 58.4 33.422 A 23.852 23.852 0 0 0 58.025 34.571 Q 57.713 35.61 57.4 36.922 Q 56.9 39.022 56.35 41.172 A 75.475 75.475 0 0 0 55.502 44.858 A 68.91 68.91 0 0 0 55.4 45.372 Q 55.005 47.398 54.805 48.789 A 37.833 37.833 0 0 0 54.8 48.822 A 3.207 3.207 0 0 1 54.795 48.993 Q 54.781 49.244 54.733 49.685 A 34.849 34.849 0 0 1 54.7 49.972 A 4.061 4.061 0 0 0 54.685 50.126 Q 54.635 50.752 54.838 50.969 A 0.354 0.354 0 0 0 54.9 51.022 A 0.172 0.172 0 0 0 55.003 50.977 Q 55.192 50.826 55.5 50.172 A 265.013 265.013 0 0 1 55.639 49.876 Q 55.897 49.332 55.986 49.151 A 5.989 5.989 0 0 1 56 49.122 Q 58.4 43.522 60.9 37.172 Q 63.4 30.822 64.9 24.522 Z M 295.2 59.522 Q 295.3 57.522 294.85 53.872 A 46.955 46.955 0 0 1 294.574 50.693 Q 294.441 48.259 294.5 45.422 A 46.532 46.532 0 0 1 294.905 40.932 A 51.676 51.676 0 0 1 295 40.272 A 14.265 14.265 0 0 1 296.181 36.407 A 17.276 17.276 0 0 1 296.9 35.022 A 12.024 12.024 0 0 1 298.649 32.65 A 9.59 9.59 0 0 1 300.95 30.872 Q 303.4 29.522 305.2 29.622 L 305.8 29.622 A 1.374 1.374 0 0 1 305.894 29.625 Q 306.036 29.635 306.08 29.677 A 0.06 0.06 0 0 1 306.1 29.722 Q 306.1 29.917 306.005 29.875 A 0.13 0.13 0 0 1 306 29.872 A 0.088 0.088 0 0 0 305.976 29.865 Q 305.865 29.846 305.474 29.966 A 8.193 8.193 0 0 0 305.3 30.022 Q 303.5 30.522 302.1 31.672 Q 300.7 32.822 299.7 34.322 A 15.228 15.228 0 0 0 298.119 37.372 A 14.274 14.274 0 0 0 298.1 37.422 A 13.569 13.569 0 0 0 297.683 38.719 Q 297.507 39.384 297.433 39.989 A 7.513 7.513 0 0 0 297.4 40.322 A 47.704 47.704 0 0 0 297.165 43.305 Q 296.997 46.975 297.5 49.922 Q 298 53.222 298.3 56.772 A 29.237 29.237 0 0 1 298.404 58.908 Q 298.423 60.553 298.238 62.055 A 19.928 19.928 0 0 1 298.05 63.272 A 13.001 13.001 0 0 1 297.346 65.74 A 9.678 9.678 0 0 1 295.95 68.172 A 5.353 5.353 0 0 1 293.408 69.913 Q 292.548 70.204 291.502 70.299 A 10.741 10.741 0 0 1 291.2 70.322 Q 290.996 70.322 290.723 70.299 A 10.449 10.449 0 0 1 290.45 70.272 A 1.561 1.561 0 0 1 290.297 70.248 Q 290.149 70.217 290.075 70.161 A 0.169 0.169 0 0 1 290 70.022 Q 290 69.822 290.9 69.322 A 7.556 7.556 0 0 0 292.597 68.268 A 5.5 5.5 0 0 0 294.3 65.822 Q 295.1 63.522 295.2 59.522 Z M 47.3 4.022 Q 47.8 3.822 47.6 4.122 Q 47.4 4.422 47.3 4.522 Q 44.7 6.822 41.6 7.422 Q 38.5 8.022 35.15 7.872 A 84.169 84.169 0 0 1 29.134 7.38 A 92.836 92.836 0 0 1 28.25 7.272 A 39.239 39.239 0 0 0 23.311 6.961 A 39.846 39.846 0 0 0 21.1 7.022 Q 19 7.122 16.7 7.822 Q 14.4 8.522 12.35 9.772 A 15.121 15.121 0 0 0 8.858 12.731 A 17.056 17.056 0 0 0 8.65 12.972 Q 7 14.922 6.1 17.422 Q 5.939 17.744 5.875 17.807 A 0.044 0.044 0 0 1 5.85 17.822 A 0.06 0.06 0 0 1 5.816 17.81 Q 5.793 17.795 5.771 17.76 A 0.43 0.43 0 0 1 5.75 17.722 A 0.373 0.373 0 0 1 5.724 17.65 Q 5.7 17.56 5.7 17.422 L 5.7 17.122 A 19.317 19.317 0 0 1 6.449 14.086 A 14.016 14.016 0 0 1 7.9 11.022 Q 9.5 8.522 11.7 6.972 Q 13.9 5.422 16.5 4.722 Q 19.1 4.022 21.7 3.922 A 57.354 57.354 0 0 1 23.293 3.9 A 54.042 54.042 0 0 1 28.75 4.172 A 748.038 748.038 0 0 0 35.043 4.785 A 682.972 682.972 0 0 0 35.45 4.822 Q 38.236 5.079 40.838 5.079 A 51.743 51.743 0 0 0 41.7 5.072 A 16.659 16.659 0 0 0 46.059 4.439 A 15.175 15.175 0 0 0 47.3 4.022 Z M 234.7 47.722 Q 234.7 48.022 234.65 48.972 A 4.633 4.633 0 0 1 234.625 49.271 Q 234.548 49.922 234.3 49.922 A 0.096 0.096 0 0 1 234.257 49.933 Q 234.079 49.933 233.829 49.254 A 6.78 6.78 0 0 1 233.8 49.172 Q 233.57 48.521 233.399 48.076 A 19.584 19.584 0 0 0 233.3 47.822 A 69.681 69.681 0 0 1 232.986 46.77 Q 232.849 46.299 232.703 45.775 A 135.968 135.968 0 0 1 232.4 44.672 Q 231.9 42.822 231.45 40.872 Q 231 38.922 230.65 37.022 A 40.93 40.93 0 0 1 230.423 35.668 Q 230.323 34.999 230.261 34.406 A 20.925 20.925 0 0 1 230.2 33.722 A 249.24 249.24 0 0 0 230.147 33.351 Q 230.061 32.756 229.903 31.678 A 2944.388 2944.388 0 0 0 229.8 30.972 Q 229.594 29.563 229.293 27.799 A 218.277 218.277 0 0 0 229 26.122 Q 228.5 23.322 227.85 20.122 Q 227.2 16.922 226.45 13.972 Q 225.7 11.022 224.9 8.672 Q 224.207 6.636 223.513 5.538 A 5.827 5.827 0 0 0 223.3 5.222 A 4.231 4.231 0 0 1 223.163 5.019 Q 222.888 4.582 222.957 4.391 A 0.184 0.184 0 0 1 223 4.322 A 0.33 0.33 0 0 1 223.078 4.263 Q 223.251 4.171 223.487 4.362 A 1.051 1.051 0 0 1 223.5 4.372 Q 223.73 4.564 223.901 4.726 A 5.149 5.149 0 0 1 224 4.822 Q 225.6 6.022 227.05 8.222 Q 228.5 10.422 229.7 12.922 Q 230.9 15.422 231.7 18.072 A 40.726 40.726 0 0 1 232.304 20.286 Q 232.55 21.302 232.706 22.221 A 22.925 22.925 0 0 1 232.8 22.822 A 132.724 132.724 0 0 1 233.835 31.665 A 154.737 154.737 0 0 1 234.1 35.322 Q 234.5 41.922 234.7 47.722 Z M 299.3 37.572 A 12.96 12.96 0 0 0 299.056 38.23 Q 298.773 39.068 298.7 39.722 Q 298.4 42.622 298.6 45.372 Q 298.8 48.122 299.25 50.822 Q 299.7 53.522 300.2 56.072 Q 300.7 58.622 300.9 61.122 L 300.9 62.122 Q 300.9 62.822 301.4 62.822 A 0.142 0.142 0 0 0 301.497 62.778 Q 301.604 62.678 301.694 62.351 A 4.017 4.017 0 0 0 301.75 62.122 Q 301.9 61.422 302 61.122 A 10.806 10.806 0 0 0 302.083 60.763 Q 302.2 60.216 302.28 59.584 A 20.297 20.297 0 0 0 302.4 58.272 Q 302.5 56.622 302.5 54.922 Q 302.5 53.222 302.35 51.572 Q 302.2 49.922 302 48.822 A 4.458 4.458 0 0 0 301.998 48.702 Q 301.987 48.274 301.9 47.322 A 13.004 13.004 0 0 1 301.896 47.275 Q 301.801 46.189 301.85 44.672 A 22.177 22.177 0 0 1 301.942 43.268 A 28.327 28.327 0 0 1 302.2 41.322 Q 302.5 39.522 303.3 37.822 A 7.259 7.259 0 0 1 304.052 36.613 A 5.2 5.2 0 0 1 305.65 35.222 A 8.773 8.773 0 0 1 305.832 35.125 A 7.645 7.645 0 0 1 308.65 34.272 Q 310.2 34.122 311.55 34.422 Q 312.499 34.633 313.078 34.894 A 2.936 2.936 0 0 1 313.5 35.122 A 2.176 2.176 0 0 0 313.594 35.175 Q 313.857 35.316 314.027 35.301 A 0.272 0.272 0 0 0 314.2 35.222 A 0.063 0.063 0 0 0 314.215 35.197 Q 314.26 35.062 313.9 34.522 A 6.588 6.588 0 0 0 313.381 33.977 Q 312.842 33.471 312.134 33.014 A 12.797 12.797 0 0 0 310.7 32.222 A 6.173 6.173 0 0 0 309.256 31.749 Q 307.584 31.413 305.4 31.822 Q 303.9 32.122 302.7 33.072 A 12.3 12.3 0 0 0 302.405 33.313 A 10.935 10.935 0 0 0 300.65 35.172 A 11.898 11.898 0 0 0 300.545 35.316 A 10.684 10.684 0 0 0 299.3 37.572 Z M 380.9 34.122 L 381.3 34.722 Q 382.431 36.375 382.578 38.937 A 13.714 13.714 0 0 1 382.6 39.722 Q 382.6 42.822 382 46.072 A 59.078 59.078 0 0 1 380.514 52.275 A 55.45 55.45 0 0 1 380.5 52.322 Q 379.758 54.795 379.356 56.452 A 35.634 35.634 0 0 0 379.2 57.122 Q 378.4 60.622 377 64.122 A 326.036 326.036 0 0 0 375.852 67.032 Q 375.163 68.803 374.6 70.322 Q 374.5 70.622 374.3 70.972 A 1.45 1.45 0 0 1 374.213 71.109 Q 374.056 71.322 373.9 71.322 A 0.16 0.16 0 0 1 373.751 71.224 Q 373.711 71.146 373.703 71.007 A 1.347 1.347 0 0 1 373.7 70.922 L 373.7 70.222 Q 373.4 64.722 374.9 59.472 Q 376.4 54.222 378.1 48.822 Q 379.1 45.522 380 42.072 A 25.102 25.102 0 0 0 380.729 37.581 Q 380.838 36.1 380.8 34.522 Q 380.8 34.155 380.884 34.125 A 0.046 0.046 0 0 1 380.9 34.122 Z M 158.499 57.495 A 34.352 34.352 0 0 0 158.2 58.722 Q 157.3 61.922 156 65.172 A 583.144 583.144 0 0 1 155.217 67.12 Q 154.84 68.053 154.492 68.903 A 326.25 326.25 0 0 1 153.7 70.822 L 153.4 71.422 Q 153.3 71.622 153.1 71.622 A 0.467 0.467 0 0 1 153.054 71.62 Q 152.86 71.601 152.786 71.413 A 0.625 0.625 0 0 1 152.75 71.272 A 5.3 5.3 0 0 1 152.716 70.976 A 4.142 4.142 0 0 1 152.7 70.622 Q 152.5 65.522 153.9 60.672 Q 155.3 55.822 157 50.722 Q 158 47.622 158.85 44.372 A 24.861 24.861 0 0 0 159.368 41.854 A 29.843 29.843 0 0 0 159.7 37.322 Q 159.621 37.006 159.73 36.94 A 0.133 0.133 0 0 1 159.8 36.922 A 0.233 0.233 0 0 1 159.84 36.926 Q 159.991 36.952 160.237 37.169 A 3.516 3.516 0 0 1 160.4 37.322 A 6.642 6.642 0 0 1 160.785 38.023 Q 161.229 38.959 161.431 40.107 A 11.918 11.918 0 0 1 161.6 42.172 Q 161.6 45.122 161 48.172 Q 160.4 51.222 159.5 54.072 A 110.042 110.042 0 0 0 159.46 54.198 Q 158.869 56.079 158.499 57.495 Z M 282.899 57.495 A 34.352 34.352 0 0 0 282.6 58.722 Q 281.7 61.922 280.4 65.172 A 583.144 583.144 0 0 1 279.617 67.12 Q 279.24 68.053 278.892 68.903 A 326.25 326.25 0 0 1 278.1 70.822 L 277.8 71.422 Q 277.7 71.622 277.5 71.622 A 0.467 0.467 0 0 1 277.454 71.62 Q 277.26 71.601 277.186 71.413 A 0.625 0.625 0 0 1 277.15 71.272 A 5.3 5.3 0 0 1 277.116 70.976 A 4.142 4.142 0 0 1 277.1 70.622 Q 276.9 65.522 278.3 60.672 Q 279.7 55.822 281.4 50.722 Q 282.4 47.622 283.25 44.372 A 24.861 24.861 0 0 0 283.768 41.854 A 29.843 29.843 0 0 0 284.1 37.322 Q 284.021 37.006 284.13 36.94 A 0.133 0.133 0 0 1 284.2 36.922 A 0.233 0.233 0 0 1 284.24 36.926 Q 284.391 36.952 284.637 37.169 A 3.516 3.516 0 0 1 284.8 37.322 A 6.642 6.642 0 0 1 285.185 38.023 Q 285.629 38.959 285.831 40.107 A 11.918 11.918 0 0 1 286 42.172 Q 286 45.122 285.4 48.172 Q 284.8 51.222 283.9 54.072 A 110.042 110.042 0 0 0 283.86 54.198 Q 283.269 56.079 282.899 57.495 Z M 371.9 33.022 Q 365.8 35.522 361.55 40.172 Q 357.3 44.822 355 50.622 A 49.953 49.953 0 0 0 354.32 52.495 Q 353.813 53.991 353.5 55.272 Q 353 57.322 352.7 59.722 Q 352.605 60.195 352.958 60.668 A 2.018 2.018 0 0 0 353 60.722 A 1.026 1.026 0 0 0 353.106 60.837 Q 353.4 61.107 353.694 60.837 A 1.026 1.026 0 0 0 353.8 60.722 Q 355.6 58.522 358.4 55.122 Q 361.2 51.722 364 47.922 Q 366.8 44.122 369.05 40.222 Q 370.877 37.055 371.616 34.284 A 16.019 16.019 0 0 0 371.9 33.022 Z M 376.874 47.922 A 33.511 33.511 0 0 0 378.9 41.422 A 17.016 17.016 0 0 0 379.277 37.883 A 16.55 16.55 0 0 0 379 34.872 Q 378.4 31.622 376.7 28.922 A 3.471 3.471 0 0 0 376.502 28.655 A 4.433 4.433 0 0 0 376.2 28.322 Q 375.975 28.097 375.806 28.097 A 0.234 0.234 0 0 0 375.7 28.122 Q 375.524 28.298 375.58 28.939 A 5.039 5.039 0 0 0 375.6 29.122 A 27.307 27.307 0 0 1 375.759 30.468 Q 375.857 31.527 375.857 32.502 A 18.743 18.743 0 0 1 375.85 33.022 Q 375.8 34.822 375.5 36.822 A 35.986 35.986 0 0 1 375.48 36.952 Q 375.181 38.901 374.6 41.272 Q 374.225 42.803 373.733 44.706 A 447.448 447.448 0 0 1 373.1 47.122 Q 372.8 48.122 372.55 49.372 A 47.969 47.969 0 0 0 372.488 49.686 A 53.16 53.16 0 0 0 372.1 51.972 A 57.375 57.375 0 0 1 372.049 52.308 A 51.817 51.817 0 0 1 371.65 54.572 A 37.309 37.309 0 0 0 371.541 55.139 Q 371.457 55.595 371.396 55.998 A 18.464 18.464 0 0 0 371.3 56.722 L 371.3 57.472 Q 371.3 57.754 371.379 57.917 A 0.373 0.373 0 0 0 371.6 58.122 A 0.202 0.202 0 0 0 371.668 58.109 Q 371.811 58.058 372.014 57.805 A 3.511 3.511 0 0 0 372.15 57.622 A 21.168 21.168 0 0 0 372.2 57.55 Q 372.43 57.219 372.539 57.032 A 1.92 1.92 0 0 0 372.6 56.922 Q 374.3 53.422 376.2 49.422 A 38.33 38.33 0 0 0 376.874 47.922 Z M 157.8 43.622 A 12.718 12.718 0 0 0 158.026 42.316 Q 158.123 41.525 158.15 40.622 A 16.59 16.59 0 0 0 158.157 40.134 Q 158.157 38.78 157.939 37.363 A 20.082 20.082 0 0 0 157.9 37.122 Q 157.6 35.322 156.85 33.672 A 9.781 9.781 0 0 0 155.334 31.288 A 9.07 9.07 0 0 0 154.9 30.822 Q 154.3 30.422 154.2 30.422 A 0.37 0.37 0 0 0 154.116 30.431 Q 153.848 30.494 154.2 31.022 A 4.273 4.273 0 0 1 154.473 31.847 Q 154.759 33.078 154.65 35.072 Q 154.5 37.822 154 40.772 Q 153.502 43.711 152.954 46.054 A 62.879 62.879 0 0 1 152.95 46.072 A 557.217 557.217 0 0 0 152.76 46.888 Q 152.411 48.387 152.315 48.85 A 9.288 9.288 0 0 0 152.3 48.922 Q 151.767 50.292 151.322 52.182 A 41.521 41.521 0 0 0 151.05 53.422 A 36.945 36.945 0 0 0 150.76 55.012 Q 150.508 56.601 150.5 57.746 A 10.715 10.715 0 0 0 150.5 57.822 A 0.617 0.617 0 0 0 150.456 57.947 Q 150.405 58.15 150.401 58.537 A 6.687 6.687 0 0 0 150.4 58.622 A 1.828 1.828 0 0 0 150.413 58.853 Q 150.463 59.243 150.7 59.322 A 0.092 0.092 0 0 0 150.751 59.3 Q 150.849 59.227 151.042 58.917 A 6.894 6.894 0 0 0 151.1 58.822 A 8.065 8.065 0 0 1 151.244 58.591 Q 151.392 58.362 151.512 58.22 A 1.529 1.529 0 0 1 151.6 58.122 A 71.138 71.138 0 0 0 153.791 53.888 A 85.25 85.25 0 0 0 155.05 51.122 A 67.232 67.232 0 0 0 157.48 44.665 A 60.593 60.593 0 0 0 157.8 43.622 Z M 282.2 43.622 A 12.718 12.718 0 0 0 282.426 42.316 Q 282.523 41.525 282.55 40.622 A 16.59 16.59 0 0 0 282.557 40.134 Q 282.557 38.78 282.339 37.363 A 20.082 20.082 0 0 0 282.3 37.122 Q 282 35.322 281.25 33.672 A 9.781 9.781 0 0 0 279.734 31.288 A 9.07 9.07 0 0 0 279.3 30.822 Q 278.7 30.422 278.6 30.422 A 0.37 0.37 0 0 0 278.516 30.431 Q 278.248 30.494 278.6 31.022 A 4.273 4.273 0 0 1 278.873 31.847 Q 279.159 33.078 279.05 35.072 Q 278.9 37.822 278.4 40.772 Q 277.902 43.711 277.354 46.054 A 62.879 62.879 0 0 1 277.35 46.072 A 557.217 557.217 0 0 0 277.16 46.888 Q 276.811 48.387 276.715 48.85 A 9.288 9.288 0 0 0 276.7 48.922 Q 276.167 50.292 275.722 52.182 A 41.521 41.521 0 0 0 275.45 53.422 A 36.945 36.945 0 0 0 275.16 55.012 Q 274.908 56.601 274.9 57.746 A 10.715 10.715 0 0 0 274.9 57.822 A 0.617 0.617 0 0 0 274.856 57.947 Q 274.805 58.15 274.801 58.537 A 6.687 6.687 0 0 0 274.8 58.622 A 1.828 1.828 0 0 0 274.813 58.853 Q 274.863 59.243 275.1 59.322 A 0.092 0.092 0 0 0 275.151 59.3 Q 275.249 59.227 275.442 58.917 A 6.894 6.894 0 0 0 275.5 58.822 A 8.065 8.065 0 0 1 275.644 58.591 Q 275.792 58.362 275.912 58.22 A 1.529 1.529 0 0 1 276 58.122 A 71.138 71.138 0 0 0 278.191 53.888 A 85.25 85.25 0 0 0 279.45 51.122 A 67.232 67.232 0 0 0 281.88 44.665 A 60.593 60.593 0 0 0 282.2 43.622 Z M 36.116 73.81 A 0.687 0.687 0 0 0 36.1 73.722 A 0.085 0.085 0 0 0 36.07 73.653 Q 35.981 73.579 35.624 73.683 A 3.499 3.499 0 0 0 35.5 73.722 A 14.59 14.59 0 0 1 33.82 74.271 Q 32.344 74.653 30.941 74.653 A 10.107 10.107 0 0 1 30.15 74.622 Q 27.6 74.422 25.1 74.022 Q 21.1 73.522 17.15 73.372 A 23.081 23.081 0 0 0 16.274 73.356 A 22.699 22.699 0 0 0 9.4 74.422 Q 9.2 74.522 8.85 74.672 Q 8.646 74.76 8.561 74.864 A 0.247 0.247 0 0 0 8.5 75.022 Q 8.5 75.182 8.724 75.246 A 0.951 0.951 0 0 0 8.85 75.272 Q 9.2 75.322 9.4 75.422 Q 10.65 75.735 12.193 75.989 A 54.278 54.278 0 0 0 14.15 76.272 A 46.581 46.581 0 0 0 15.677 76.441 A 39.853 39.853 0 0 0 19.4 76.622 L 23.1 76.622 Q 25.4 76.622 27.85 76.422 A 41.887 41.887 0 0 0 29.352 76.273 A 35.362 35.362 0 0 0 32.45 75.772 Q 33.66 75.519 34.569 75.092 A 5.699 5.699 0 0 0 35.8 74.322 A 0.783 0.783 0 0 0 35.942 74.233 Q 36.146 74.068 36.116 73.81 Z M 17 17.622 L 15.1 17.622 A 64.55 64.55 0 0 1 13.169 26.791 A 74.531 74.531 0 0 1 12.2 29.922 Q 10.1 36.222 8.4 42.822 Q 9.2 42.522 9.85 42.272 A 30.41 30.41 0 0 1 10.787 41.929 A 26.291 26.291 0 0 1 11.1 41.822 Q 11.6 39.822 12.1 37.972 Q 12.53 36.382 12.959 35.125 A 30.995 30.995 0 0 1 13.1 34.722 A 22.295 22.295 0 0 0 13.21 34.381 Q 13.369 33.878 13.63 32.997 A 232.544 232.544 0 0 0 13.8 32.422 A 76.52 76.52 0 0 0 14.189 31.049 Q 14.525 29.822 14.9 28.322 Q 15.5 25.922 16.1 23.122 Q 16.7 20.322 17 17.622 Z M 46.03 7.233 A 3.874 3.874 0 0 0 45.9 7.322 Q 44.9 8.122 43.15 8.622 A 18.913 18.913 0 0 1 41.552 9.002 A 23.611 23.611 0 0 1 39.3 9.322 A 42.038 42.038 0 0 1 37.963 9.428 A 49.449 49.449 0 0 1 34.85 9.522 Q 32.5 9.522 30.3 9.322 L 28.35 9.322 A 28.447 28.447 0 0 0 27.466 9.336 A 34.369 34.369 0 0 0 25.9 9.422 A 52.004 52.004 0 0 0 24.946 9.504 A 43.665 43.665 0 0 0 23.45 9.672 Q 22.3 9.822 21.6 10.022 A 0.521 0.521 0 0 0 21.555 10.024 Q 21.394 10.039 21.074 10.144 A 7.941 7.941 0 0 0 20.85 10.222 A 1.511 1.511 0 0 0 20.706 10.282 Q 20.377 10.443 20.466 10.659 A 0.367 0.367 0 0 0 20.5 10.722 A 0.17 0.17 0 0 0 20.511 10.782 Q 20.575 10.952 21 11.122 A 7.262 7.262 0 0 0 21.071 11.15 Q 21.397 11.277 21.583 11.31 A 0.672 0.672 0 0 0 21.7 11.322 Q 25 12.022 28.3 12.622 A 39.564 39.564 0 0 0 29.53 12.826 A 34.964 34.964 0 0 0 34.7 13.222 A 10.525 10.525 0 0 0 35.159 13.212 Q 35.679 13.189 36.266 13.116 A 20.177 20.177 0 0 0 37.5 12.922 A 18.9 18.9 0 0 0 38.102 12.799 A 21.088 21.088 0 0 0 40.75 12.022 Q 42.4 11.422 43.85 10.422 A 9.612 9.612 0 0 0 43.94 10.359 A 8.439 8.439 0 0 0 46.2 8.022 A 1.604 1.604 0 0 0 46.235 7.968 Q 46.327 7.817 46.396 7.631 A 2.746 2.746 0 0 0 46.5 7.272 A 0.681 0.681 0 0 0 46.504 7.252 Q 46.576 6.876 46.03 7.233 Z M 21.7 17.722 L 19.4 17.722 A 61.432 61.432 0 0 1 19.449 19.852 Q 19.455 21.037 19.412 22.146 A 46.019 46.019 0 0 1 19.4 22.422 Q 19.3 24.622 18.8 26.322 Q 17.9 29.922 16.8 33.822 Q 15.7 37.722 14.3 41.422 A 3.246 3.246 0 0 1 14.753 41.344 A 4.346 4.346 0 0 1 15.2 41.322 L 16.2 41.322 L 17.7 36.622 Q 19.1 32.222 20.25 27.522 A 54.59 54.59 0 0 0 21.69 17.881 A 59.744 59.744 0 0 0 21.7 17.722 Z M 38.391 44.754 A 2.049 2.049 0 0 0 38.3 44.822 Q 37.2 45.622 35.4 46.122 A 26.926 26.926 0 0 1 33.758 46.521 A 33.746 33.746 0 0 1 31.45 46.922 Q 29.3 47.222 27.15 47.222 Q 25 47.222 23.2 47.022 Q 22.757 46.959 22.174 46.916 A 27.488 27.488 0 0 0 21.45 46.872 Q 20.4 46.822 19.25 46.922 Q 18.1 47.022 17.05 47.122 A 14.795 14.795 0 0 0 16.539 47.179 Q 16.183 47.226 15.874 47.286 A 6.951 6.951 0 0 0 15.3 47.422 A 0.342 0.342 0 0 0 15.285 47.423 Q 15.084 47.431 14.65 47.672 A 2.189 2.189 0 0 0 14.603 47.699 Q 14.205 47.933 14.3 48.122 A 0.364 0.364 0 0 0 14.427 48.399 Q 14.539 48.502 14.75 48.572 A 11.655 11.655 0 0 1 14.952 48.641 Q 15.248 48.746 15.4 48.822 Q 18.5 49.522 21.9 50.172 A 59.032 59.032 0 0 0 23.996 50.535 A 50.15 50.15 0 0 0 28.4 51.022 A 5.115 5.115 0 0 0 28.431 51.025 Q 29.52 51.117 30.95 50.772 Q 32.4 50.422 33.8 49.772 A 10.245 10.245 0 0 0 34.405 49.466 A 11.336 11.336 0 0 0 36.45 48.022 Q 37.7 46.922 38.5 45.522 Q 38.644 45.378 38.71 45.106 A 1.863 1.863 0 0 0 38.75 44.872 Q 38.795 44.465 38.391 44.754 Z M 39.6 67.622 A 2.536 2.536 0 0 0 39.692 67.416 Q 39.8 67.142 39.8 66.922 A 0.425 0.425 0 0 0 39.781 66.874 Q 39.686 66.676 39.463 66.864 A 1.016 1.016 0 0 0 39.4 66.922 A 4.25 4.25 0 0 1 39.009 67.267 Q 38.563 67.615 37.981 67.892 A 8.147 8.147 0 0 1 36.85 68.322 A 20.433 20.433 0 0 1 36.171 68.515 A 22.947 22.947 0 0 1 33.35 69.072 Q 31.5 69.322 29.5 69.272 Q 27.5 69.222 25.8 69.122 A 23.788 23.788 0 0 1 25.333 69.117 Q 24.788 69.107 24.1 69.072 Q 23.1 69.022 22.05 69.022 A 42.452 42.452 0 0 0 21.499 69.026 A 36.645 36.645 0 0 0 20.05 69.072 Q 19.1 69.122 18.5 69.222 Q 18.347 69.222 18.018 69.339 A 6.137 6.137 0 0 0 17.8 69.422 A 2.26 2.26 0 0 0 17.716 69.458 Q 17.365 69.615 17.384 69.772 A 0.154 0.154 0 0 0 17.4 69.822 Q 17.5 70.122 17.9 70.322 L 18.5 70.622 Q 21.3 71.622 24.15 72.422 A 20.569 20.569 0 0 0 26.965 72.996 A 26.488 26.488 0 0 0 30.5 73.222 A 6.461 6.461 0 0 0 30.988 73.203 Q 31.411 73.171 31.887 73.086 A 13.001 13.001 0 0 0 32.85 72.872 A 11.102 11.102 0 0 0 33.019 72.827 A 11.917 11.917 0 0 0 35.5 71.822 Q 36.8 71.122 37.9 70.072 Q 39 69.022 39.6 67.622 Z M 6.8 68.822 L 8 67.322 A 28.658 28.658 0 0 1 7.917 65.827 A 35.892 35.892 0 0 1 7.9 64.722 Q 7.9 63.322 8.05 62.172 A 20.768 20.768 0 0 1 8.149 61.497 Q 8.262 60.809 8.398 60.33 A 6.008 6.008 0 0 1 8.4 60.322 A 2.803 2.803 0 0 1 8.482 60.075 Q 8.659 59.622 8.9 59.622 Q 9.1 59.622 9.2 60.122 Q 9.3 60.622 9.4 61.222 Q 9.5 61.822 9.55 62.422 Q 9.6 63.022 9.6 63.322 A 16.207 16.207 0 0 1 9.72 64.177 A 14.012 14.012 0 0 1 9.75 64.472 A 15.023 15.023 0 0 0 9.852 65.316 A 17.357 17.357 0 0 0 9.9 65.622 Q 10.4 65.322 10.8 65.022 A 3.853 3.853 0 0 1 11.569 64.577 A 4.373 4.373 0 0 1 11.7 64.522 Q 11.8 60.022 12.8 55.122 Q 12.2 55.022 10.95 54.872 Q 9.923 54.749 8.728 54.862 A 13.852 13.852 0 0 0 8.2 54.922 Q 7.2 55.022 6.5 55.722 Q 5.8 56.422 5.7 57.422 Q 5.5 60.422 5.8 63.172 Q 6.1 65.922 6.8 68.822 Z M 158.15 20.972 A 26.059 26.059 0 0 0 158.623 21.036 Q 159.32 21.122 159.7 21.122 A 10.527 10.527 0 0 0 160.438 21.097 Q 163.268 20.898 164.6 19.122 A 6.568 6.568 0 0 0 164.958 18.593 Q 165.612 17.518 165.891 16.143 A 11.146 11.146 0 0 0 166.1 13.922 A 4.953 4.953 0 0 0 166.09 13.605 Q 166.038 12.793 165.72 11.943 A 8.365 8.365 0 0 0 165.05 10.572 A 7.3 7.3 0 0 0 163.857 9.074 A 8.652 8.652 0 0 0 162 7.722 Q 161.9 7.622 161.65 7.472 A 1.436 1.436 0 0 0 161.54 7.412 Q 161.355 7.322 161.2 7.322 Q 161.1 7.422 161.4 7.772 Q 161.559 7.958 161.691 8.13 A 5.638 5.638 0 0 1 161.9 8.422 Q 162.603 9.336 162.812 10.893 A 10.785 10.785 0 0 1 162.9 12.322 A 9.351 9.351 0 0 1 162.893 12.686 Q 162.863 13.46 162.702 14.126 A 5.092 5.092 0 0 1 162 15.772 A 10.701 10.701 0 0 1 161.295 16.717 A 8.405 8.405 0 0 1 160 17.972 A 18.038 18.038 0 0 1 159.52 18.331 Q 158.7 18.922 158 19.272 A 6.216 6.216 0 0 0 157.759 19.399 Q 157.1 19.766 157.1 20.022 Q 157.1 20.647 157.741 20.875 A 2.113 2.113 0 0 0 158.15 20.972 Z M 282.55 20.972 A 26.059 26.059 0 0 0 283.023 21.036 Q 283.72 21.122 284.1 21.122 A 10.527 10.527 0 0 0 284.838 21.097 Q 287.668 20.898 289 19.122 A 6.568 6.568 0 0 0 289.358 18.593 Q 290.012 17.518 290.291 16.143 A 11.146 11.146 0 0 0 290.5 13.922 A 4.953 4.953 0 0 0 290.49 13.605 Q 290.438 12.793 290.12 11.943 A 8.365 8.365 0 0 0 289.45 10.572 A 7.3 7.3 0 0 0 288.257 9.074 A 8.652 8.652 0 0 0 286.4 7.722 Q 286.3 7.622 286.05 7.472 A 1.436 1.436 0 0 0 285.94 7.412 Q 285.755 7.322 285.6 7.322 Q 285.5 7.422 285.8 7.772 Q 285.959 7.958 286.091 8.13 A 5.638 5.638 0 0 1 286.3 8.422 Q 287.003 9.336 287.212 10.893 A 10.785 10.785 0 0 1 287.3 12.322 A 9.351 9.351 0 0 1 287.293 12.686 Q 287.263 13.46 287.102 14.126 A 5.092 5.092 0 0 1 286.4 15.772 A 10.701 10.701 0 0 1 285.695 16.717 A 8.405 8.405 0 0 1 284.4 17.972 A 18.038 18.038 0 0 1 283.92 18.331 Q 283.1 18.922 282.4 19.272 A 6.216 6.216 0 0 0 282.159 19.399 Q 281.5 19.766 281.5 20.022 Q 281.5 20.647 282.141 20.875 A 2.113 2.113 0 0 0 282.55 20.972 Z M 343.5 32.672 A 2.366 2.366 0 0 0 343.5 32.651 Q 343.497 32.319 343.4 32.222 Q 343.1 32.122 342.8 32.522 A 3.235 3.235 0 0 1 341.92 33.402 A 4.306 4.306 0 0 1 341 33.872 A 10.946 10.946 0 0 1 340.024 34.186 A 13.349 13.349 0 0 1 338.35 34.522 Q 336.9 34.722 335.5 34.722 A 17.792 17.792 0 0 1 334.896 34.712 Q 333.877 34.678 333.1 34.522 A 11.415 11.415 0 0 0 331.484 34.408 A 11.982 11.982 0 0 0 330.25 34.472 Q 328.8 34.622 327.9 34.822 L 327.4 35.072 A 0.738 0.738 0 0 0 327.319 35.119 Q 327.224 35.183 327.17 35.267 A 0.464 0.464 0 0 0 327.1 35.522 A 0.277 0.277 0 0 0 327.111 35.6 Q 327.158 35.761 327.4 35.922 A 4.572 4.572 0 0 1 327.442 35.95 Q 327.577 36.043 327.691 36.135 A 2.696 2.696 0 0 1 327.9 36.322 Q 329.9 37.822 332.1 38.172 A 29.888 29.888 0 0 0 332.375 38.215 A 27.194 27.194 0 0 0 336.4 38.522 Q 338.1 38.522 340.3 37.322 A 5.958 5.958 0 0 0 342.564 35.123 A 8.551 8.551 0 0 0 343.4 33.222 A 0.799 0.799 0 0 0 343.458 33.064 Q 343.48 32.979 343.49 32.876 A 1.996 1.996 0 0 0 343.5 32.672 Z M 265.79 16.586 A 16.928 16.928 0 0 0 265.9 15.622 Q 266.1 12.722 265.75 11.122 Q 265.4 9.522 264.8 8.322 Q 264.7 8.122 264.3 7.672 A 2.765 2.765 0 0 0 264.18 7.545 Q 263.983 7.35 263.813 7.273 A 0.516 0.516 0 0 0 263.6 7.222 A 0.213 0.213 0 0 0 263.563 7.225 Q 263.41 7.252 263.5 7.522 Q 263.566 7.719 263.588 7.873 A 1.034 1.034 0 0 1 263.6 8.022 A 20.082 20.082 0 0 1 263.639 8.263 Q 263.857 9.68 263.857 11.034 A 16.59 16.59 0 0 1 263.85 11.522 A 42.946 42.946 0 0 1 263.791 12.825 A 51.164 51.164 0 0 1 263.6 15.122 Q 263.4 16.622 263.3 18.022 Q 263.2 19.422 262.9 21.022 Q 262.9 21.247 262.844 21.641 A 12.285 12.285 0 0 1 262.8 21.922 A 6.997 6.997 0 0 0 262.777 22.073 A 7.689 7.689 0 0 0 262.7 23.172 L 262.7 24.322 A 4.447 4.447 0 0 0 262.701 24.396 Q 262.708 24.822 262.8 24.822 A 0.187 0.187 0 0 0 262.906 24.856 Q 263.132 24.856 263.452 24.3 A 5.446 5.446 0 0 0 263.6 24.022 A 14.066 14.066 0 0 0 263.834 23.529 Q 264.217 22.682 264.6 21.572 A 23.578 23.578 0 0 0 264.855 20.788 A 27.173 27.173 0 0 0 265.45 18.472 A 33.904 33.904 0 0 0 265.6 17.724 Q 265.714 17.12 265.79 16.586 Z M 56.03 68.838 A 13.512 13.512 0 0 0 57.7 71.322 A 9.28 9.28 0 0 0 58.181 71.878 A 6.881 6.881 0 0 0 62.6 74.122 Q 63.419 74.304 63.203 74.611 A 0.479 0.479 0 0 1 63.15 74.672 A 1.152 1.152 0 0 1 62.599 74.977 A 1.664 1.664 0 0 1 62.2 75.022 Q 60.5 75.022 58.85 74.622 Q 57.754 74.357 56.681 73.474 A 9.702 9.702 0 0 1 55.6 72.422 A 6.058 6.058 0 0 1 55.197 71.851 Q 54.913 71.396 54.657 70.833 A 13.071 13.071 0 0 1 54.2 69.672 A 25.212 25.212 0 0 1 54.055 69.236 A 22.619 22.619 0 0 1 53.3 66.222 Q 53 64.522 53 63.222 Q 53 62.348 53.181 62.062 A 0.256 0.256 0 0 1 53.4 61.922 A 0.048 0.048 0 0 1 53.422 61.928 Q 53.502 61.97 53.634 62.299 A 5.65 5.65 0 0 1 53.7 62.472 Q 53.9 63.022 54.1 63.672 L 54.5 64.972 A 124.136 124.136 0 0 0 54.515 65.02 Q 54.655 65.474 54.744 65.75 A 18.857 18.857 0 0 0 54.8 65.922 A 22.777 22.777 0 0 0 54.901 66.219 Q 55.398 67.644 56.03 68.838 Z M 94.1 70.622 Q 94.4 72.322 94.9 73.922 A 14.014 14.014 0 0 0 95.376 75.227 Q 95.644 75.858 95.955 76.385 A 8.082 8.082 0 0 0 96.1 76.622 Q 96.18 76.622 96.228 76.717 A 0.411 0.411 0 0 1 96.25 76.772 A 0.222 0.222 0 0 1 96.256 76.796 Q 96.284 76.922 96.1 76.922 Q 95.945 76.922 95.76 76.832 A 1.436 1.436 0 0 1 95.65 76.772 A 1.34 1.34 0 0 0 95.488 76.688 Q 95.402 76.652 95.323 76.635 A 0.606 0.606 0 0 0 95.2 76.622 A 6.869 6.869 0 0 1 93.85 75.549 A 5.896 5.896 0 0 1 93.15 74.672 A 4.807 4.807 0 0 1 92.749 73.89 Q 92.26 72.709 91.9 70.622 A 10.639 10.639 0 0 1 91.782 69.754 Q 91.7 68.911 91.7 67.822 A 52.283 52.283 0 0 1 91.756 65.357 A 45.63 45.63 0 0 1 91.8 64.572 A 31.77 31.77 0 0 1 91.889 63.473 Q 91.943 62.933 92.012 62.463 A 15.928 15.928 0 0 1 92.1 61.922 A 4.838 4.838 0 0 1 92.181 61.552 Q 92.328 60.997 92.552 60.864 A 0.286 0.286 0 0 1 92.7 60.822 A 0.071 0.071 0 0 1 92.749 60.849 Q 92.828 60.931 92.933 61.267 A 5.244 5.244 0 0 1 92.95 61.322 Q 93.09 61.79 93.187 62.389 A 11.734 11.734 0 0 1 93.2 62.472 Q 93.3 63.122 93.35 63.722 Q 93.393 64.24 93.399 64.46 A 2.347 2.347 0 0 1 93.4 64.522 A 68.607 68.607 0 0 1 93.611 66.569 A 56.41 56.41 0 0 1 93.7 67.722 Q 93.8 69.222 94.1 70.622 Z M 332.7 73.872 A 0.326 0.326 0 0 0 332.668 73.795 Q 332.536 73.573 332.1 73.922 Q 331.583 74.218 331.011 74.159 A 2.105 2.105 0 0 1 330.6 74.072 A 1.8 1.8 0 0 1 330.28 73.935 Q 329.605 73.568 328.8 72.522 A 7.317 7.317 0 0 1 328.413 71.989 Q 327.828 71.105 327.3 69.822 Q 326.6 68.122 326.2 66.522 A 29.652 29.652 0 0 1 326.18 66.431 Q 325.988 65.552 325.75 64.222 Q 325.582 63.282 325.301 62.973 A 0.403 0.403 0 0 0 325 62.822 Q 324.669 62.822 324.543 63.645 A 5.598 5.598 0 0 0 324.5 64.022 A 9.058 9.058 0 0 0 324.484 64.251 Q 324.442 64.976 324.502 65.854 A 19.641 19.641 0 0 0 324.6 66.872 A 22.922 22.922 0 0 0 324.626 67.079 A 24.836 24.836 0 0 0 325.25 70.222 A 11.628 11.628 0 0 0 325.526 71.124 Q 325.705 71.629 325.913 72.039 A 4.814 4.814 0 0 0 326.4 72.822 A 8.014 8.014 0 0 0 326.614 73.104 Q 327.32 73.989 328.1 74.422 A 6.858 6.858 0 0 0 328.214 74.484 Q 329.051 74.929 329.8 75.022 Q 330.6 75.122 331.25 74.972 A 4.129 4.129 0 0 0 331.419 74.929 Q 331.667 74.861 331.874 74.769 A 2.202 2.202 0 0 0 332.3 74.522 Q 332.8 74.222 332.7 73.872 Z M 284.6 69.322 L 284.4 68.922 A 2.432 2.432 0 0 1 284.348 68.812 Q 284.216 68.51 284.299 68.424 A 0.095 0.095 0 0 1 284.3 68.422 A 0.169 0.169 0 0 1 284.423 68.372 Q 284.477 68.372 284.543 68.397 A 0.624 0.624 0 0 1 284.6 68.422 A 0.451 0.451 0 0 1 284.652 68.483 Q 284.7 68.553 284.7 68.622 Q 285.873 69.698 286.712 70.248 A 7.688 7.688 0 0 0 286.75 70.272 Q 287.6 70.822 289 71.322 A 11.736 11.736 0 0 0 290.492 71.607 Q 291.884 71.786 293.6 71.722 A 8.318 8.318 0 0 0 294.315 71.608 Q 294.688 71.534 295.111 71.421 A 18.884 18.884 0 0 0 295.8 71.222 A 13.886 13.886 0 0 1 296.106 71.132 Q 296.981 70.884 297.161 70.984 A 0.09 0.09 0 0 1 297.2 71.022 A 0.373 0.373 0 0 1 297.264 71.152 Q 297.359 71.516 296.6 72.022 A 7.111 7.111 0 0 1 295.734 72.51 Q 295.297 72.72 294.783 72.907 A 13.513 13.513 0 0 1 294.3 73.072 Q 292.9 73.522 291.4 73.672 A 8.316 8.316 0 0 1 290.903 73.707 Q 289.73 73.754 288.9 73.422 A 12.6 12.6 0 0 1 287.815 72.908 Q 286.752 72.335 286.17 71.694 A 3.71 3.71 0 0 1 286.15 71.672 Q 285.313 70.737 284.622 69.366 A 14.497 14.497 0 0 1 284.6 69.322 Z M 156 17.122 Q 154.8 17.622 154.8 16.522 A 2.235 2.235 0 0 1 155.069 15.473 A 3.133 3.133 0 0 1 155.4 14.972 Q 156 14.222 156.55 13.322 A 5.593 5.593 0 0 0 157.194 11.772 A 6.677 6.677 0 0 0 157.3 11.272 A 2.785 2.785 0 0 0 157.34 10.829 Q 157.353 9.809 156.7 8.422 A 3.007 3.007 0 0 0 156.498 8.016 Q 156.305 7.688 156 7.322 Q 155.5 6.722 155.7 6.622 Q 155.895 6.525 156.518 6.76 A 5.716 5.716 0 0 1 156.55 6.772 Q 157.081 6.976 157.312 7.081 A 2.512 2.512 0 0 1 157.4 7.122 Q 159.1 7.922 159.95 9.522 Q 160.528 10.61 160.713 11.513 A 4.036 4.036 0 0 1 160.8 12.322 A 3.823 3.823 0 0 1 159.549 15.212 A 5.054 5.054 0 0 1 159.25 15.472 A 9.012 9.012 0 0 1 157.561 16.56 A 7.384 7.384 0 0 1 156 17.122 Z M 280.4 17.122 Q 279.2 17.622 279.2 16.522 A 2.235 2.235 0 0 1 279.469 15.473 A 3.133 3.133 0 0 1 279.8 14.972 Q 280.4 14.222 280.95 13.322 A 5.593 5.593 0 0 0 281.594 11.772 A 6.677 6.677 0 0 0 281.7 11.272 A 2.785 2.785 0 0 0 281.74 10.829 Q 281.753 9.809 281.1 8.422 A 3.007 3.007 0 0 0 280.898 8.016 Q 280.705 7.688 280.4 7.322 Q 279.9 6.722 280.1 6.622 Q 280.295 6.525 280.918 6.76 A 5.716 5.716 0 0 1 280.95 6.772 Q 281.481 6.976 281.712 7.081 A 2.512 2.512 0 0 1 281.8 7.122 Q 283.5 7.922 284.35 9.522 Q 284.928 10.61 285.113 11.513 A 4.036 4.036 0 0 1 285.2 12.322 A 3.823 3.823 0 0 1 283.949 15.212 A 5.054 5.054 0 0 1 283.65 15.472 A 9.012 9.012 0 0 1 281.961 16.56 A 7.384 7.384 0 0 1 280.4 17.122 Z M 137.9 76.922 Q 139.5 77.022 140.35 76.972 A 16.514 16.514 0 0 0 140.935 76.926 Q 141.591 76.864 142.473 76.74 A 55.124 55.124 0 0 0 142.6 76.722 Q 142.7 76.722 143.1 76.672 A 2.52 2.52 0 0 1 143.192 76.662 Q 143.471 76.638 143.573 76.701 A 0.146 0.146 0 0 1 143.6 76.722 Q 143.7 76.922 143.35 77.222 Q 143 77.522 142.8 77.622 Q 141.2 78.122 139.85 78.322 A 6.934 6.934 0 0 1 139.3 78.38 Q 138.013 78.466 135.9 78.222 A 11.054 11.054 0 0 1 134.981 78.078 Q 134.467 77.977 133.9 77.822 A 22.513 22.513 0 0 1 132.726 77.469 A 17.535 17.535 0 0 1 131.9 77.172 Q 131.312 76.943 130.894 76.715 A 4.258 4.258 0 0 1 130.5 76.472 A 1.745 1.745 0 0 1 130.386 76.386 Q 130.05 76.107 130.282 75.935 A 0.424 0.424 0 0 1 130.3 75.922 A 0.231 0.231 0 0 1 130.358 75.904 Q 130.622 75.851 131.55 76.072 A 397.872 397.872 0 0 1 132.02 76.185 Q 132.697 76.346 133 76.422 Q 134.4 76.722 135.6 76.822 A 28.686 28.686 0 0 0 137.344 76.916 A 25.038 25.038 0 0 0 137.9 76.922 Z M 374.652 76.505 A 1.522 1.522 0 0 0 374.6 76.422 A 1.48 1.48 0 0 1 374.572 76.379 Q 374.401 76.102 373.978 75.209 A 69.026 69.026 0 0 1 373.75 74.722 Q 373.384 73.935 373.098 73.242 A 25.249 25.249 0 0 1 372.7 72.222 Q 372.4 71.322 372.15 70.272 A 83.363 83.363 0 0 1 371.989 69.582 Q 371.906 69.219 371.818 68.823 A 145.454 145.454 0 0 1 371.6 67.822 A 5.515 5.515 0 0 1 371.586 67.78 Q 371.499 67.512 371.272 66.741 A 209.226 209.226 0 0 1 371.15 66.322 A 10.473 10.473 0 0 0 371.132 66.263 Q 370.881 65.419 370.656 65.2 A 0.229 0.229 0 0 0 370.5 65.122 A 0.218 0.218 0 0 0 370.398 65.147 Q 370.224 65.238 370.111 65.652 A 3.422 3.422 0 0 0 370.05 65.922 Q 369.961 66.397 369.925 66.978 A 13.607 13.607 0 0 0 369.9 67.822 A 17.433 17.433 0 0 0 369.922 68.677 A 21.357 21.357 0 0 0 370.05 70.172 Q 370.146 70.973 370.263 71.589 A 11.247 11.247 0 0 0 370.4 72.222 A 9.44 9.44 0 0 0 370.618 72.918 Q 371.215 74.588 372.3 75.422 A 204.737 204.737 0 0 0 372.463 75.547 Q 373.619 76.435 373.9 76.622 Q 374.4 76.822 374.7 76.822 A 0.108 0.108 0 0 0 374.726 76.782 Q 374.759 76.69 374.652 76.505 Z M 151.25 70.822 A 41.874 41.874 0 0 0 151.464 71.533 Q 151.694 72.272 151.9 72.822 A 11.907 11.907 0 0 0 152.286 73.831 A 9.045 9.045 0 0 0 152.85 74.922 Q 153.4 75.822 154.1 76.622 A 0.121 0.121 0 0 1 154.192 76.665 Q 154.21 76.684 154.226 76.714 A 0.403 0.403 0 0 1 154.25 76.772 A 0.496 0.496 0 0 1 154.253 76.782 Q 154.289 76.898 154.229 76.918 A 0.093 0.093 0 0 1 154.2 76.922 A 0.846 0.846 0 0 1 154.045 76.906 Q 153.854 76.87 153.581 76.753 A 5.308 5.308 0 0 1 153.3 76.622 Q 151.9 76.122 151.05 75.322 Q 150.2 74.522 149.6 72.522 A 6.063 6.063 0 0 1 149.494 72.213 Q 149.272 71.509 149.15 70.572 Q 149 69.422 149 68.372 A 12.914 12.914 0 0 1 149.01 67.862 Q 149.024 67.505 149.059 67.196 A 5.912 5.912 0 0 1 149.15 66.622 A 2.395 2.395 0 0 1 149.171 66.531 Q 149.327 65.922 149.7 65.922 A 0.089 0.089 0 0 1 149.742 65.934 Q 149.895 66.016 150.1 66.677 A 10.409 10.409 0 0 1 150.2 67.022 A 28.766 28.766 0 0 0 150.22 67.097 Q 150.433 67.869 150.595 68.281 A 2.979 2.979 0 0 0 150.7 68.522 A 20.53 20.53 0 0 0 150.871 69.361 A 24.278 24.278 0 0 0 151.25 70.822 Z M 275.65 70.822 A 41.874 41.874 0 0 0 275.864 71.533 Q 276.094 72.272 276.3 72.822 A 11.907 11.907 0 0 0 276.686 73.831 A 9.045 9.045 0 0 0 277.25 74.922 Q 277.8 75.822 278.5 76.622 A 0.121 0.121 0 0 1 278.592 76.665 Q 278.61 76.684 278.626 76.714 A 0.403 0.403 0 0 1 278.65 76.772 A 0.496 0.496 0 0 1 278.653 76.782 Q 278.689 76.898 278.629 76.918 A 0.093 0.093 0 0 1 278.6 76.922 A 0.846 0.846 0 0 1 278.445 76.906 Q 278.254 76.87 277.981 76.753 A 5.308 5.308 0 0 1 277.7 76.622 Q 276.3 76.122 275.45 75.322 Q 274.6 74.522 274 72.522 A 6.063 6.063 0 0 1 273.894 72.213 Q 273.672 71.509 273.55 70.572 Q 273.4 69.422 273.4 68.372 A 12.914 12.914 0 0 1 273.41 67.862 Q 273.424 67.505 273.459 67.196 A 5.912 5.912 0 0 1 273.55 66.622 A 2.395 2.395 0 0 1 273.571 66.531 Q 273.727 65.922 274.1 65.922 A 0.089 0.089 0 0 1 274.142 65.934 Q 274.295 66.016 274.5 66.677 A 10.409 10.409 0 0 1 274.6 67.022 A 28.766 28.766 0 0 0 274.62 67.097 Q 274.833 67.869 274.995 68.281 A 2.979 2.979 0 0 0 275.1 68.522 A 20.53 20.53 0 0 0 275.271 69.361 A 24.278 24.278 0 0 0 275.65 70.822 Z M 6.9 20.022 L 6.9 19.322 A 16.681 16.681 0 0 1 7.169 17.813 A 12.735 12.735 0 0 1 7.5 16.622 A 7.046 7.046 0 0 1 8.007 15.475 Q 8.301 14.937 8.707 14.38 A 12.461 12.461 0 0 1 8.9 14.122 Q 9.189 13.689 9.764 13.282 A 6.35 6.35 0 0 1 10.25 12.972 Q 11.2 12.422 12.1 12.022 A 8.421 8.421 0 0 1 12.747 11.764 Q 13.069 11.652 13.361 11.586 A 4.196 4.196 0 0 1 13.7 11.522 A 2.232 2.232 0 0 1 13.801 11.51 Q 14.4 11.452 14.4 11.822 Q 14.579 12.091 13.956 12.681 A 5.422 5.422 0 0 1 13.8 12.822 Q 13.003 13.519 12.603 13.721 A 1.509 1.509 0 0 1 12.6 13.722 Q 11.8 14.322 11.1 14.872 A 6.796 6.796 0 0 0 10.185 15.747 A 8.156 8.156 0 0 0 9.8 16.222 A 13.676 13.676 0 0 0 8.908 17.333 A 11.214 11.214 0 0 0 8.45 18.022 A 17.215 17.215 0 0 0 7.782 19.225 A 21.107 21.107 0 0 0 7.4 20.022 A 4.246 4.246 0 0 1 7.328 20.251 Q 7.214 20.58 7.099 20.679 A 0.152 0.152 0 0 1 7 20.722 A 0.05 0.05 0 0 1 6.96 20.688 Q 6.911 20.589 6.902 20.209 A 7.821 7.821 0 0 1 6.9 20.022 Z M 8.657 49.097 A 0.437 0.437 0 0 0 8.7 48.922 A 0.283 0.283 0 0 0 8.549 48.754 Q 8.387 48.674 8.067 48.707 A 2.433 2.433 0 0 0 7.95 48.722 A 4.525 4.525 0 0 0 7.634 48.783 Q 7.101 48.904 6.45 49.172 A 9.474 9.474 0 0 0 5.972 49.385 A 10.92 10.92 0 0 0 4.75 50.072 A 20.788 20.788 0 0 0 4.516 50.226 Q 4.172 50.455 3.873 50.675 A 12.05 12.05 0 0 0 3.3 51.122 A 10.173 10.173 0 0 0 3.064 51.366 Q 1.958 52.549 1.55 53.772 Q 1.241 54.7 1.049 55.369 A 17.128 17.128 0 0 0 0.9 55.922 Q 0.8 56.222 0.8 56.872 Q 0.8 57.463 1.213 56.773 A 5.389 5.389 0 0 0 1.3 56.622 A 7.954 7.954 0 0 1 1.739 55.786 A 6.173 6.173 0 0 1 2.5 54.772 A 56.213 56.213 0 0 1 2.879 54.37 A 65.18 65.18 0 0 1 4 53.222 A 2.704 2.704 0 0 1 4.092 53.136 Q 4.337 52.912 4.95 52.422 Q 5.7 51.822 6.55 51.122 A 48.288 48.288 0 0 0 6.577 51.1 Q 7.41 50.413 8.05 49.822 A 6.343 6.343 0 0 0 8.169 49.71 Q 8.548 49.341 8.657 49.097 Z M 4.4 76.622 L 4.3 76.622 L 4.3 76.522 L 4.3 76.322 Q 4.683 75.174 5.095 74.318 A 10.374 10.374 0 0 1 5.35 73.822 A 4.789 4.789 0 0 1 5.869 73.074 Q 6.158 72.726 6.544 72.366 A 11.783 11.783 0 0 1 7.3 71.722 A 18.019 18.019 0 0 1 7.906 71.336 Q 8.229 71.139 8.595 70.932 A 30.258 30.258 0 0 1 8.7 70.872 A 8.65 8.65 0 0 1 9.875 70.319 A 7.582 7.582 0 0 1 10.3 70.172 Q 11.1 69.922 11.7 69.922 Q 11.985 69.922 12.157 70.013 A 0.461 0.461 0 0 1 12.4 70.322 A 0.39 0.39 0 0 1 12.346 70.508 Q 12.212 70.752 11.75 71.072 Q 11.1 71.522 10.3 72.022 Q 9.5 72.522 8.75 72.972 Q 8.059 73.387 7.75 73.589 A 7.365 7.365 0 0 0 7.7 73.622 Q 6.9 74.322 6.3 74.822 A 6.303 6.303 0 0 0 5.738 75.357 Q 5.469 75.644 5.2 75.991 A 10.785 10.785 0 0 0 5.1 76.122 A 5.478 5.478 0 0 1 4.909 76.305 Q 4.636 76.553 4.479 76.607 A 0.245 0.245 0 0 1 4.4 76.622 Z M 322.85 36.922 A 2.5 2.5 0 0 0 323.062 36.706 Q 323.4 36.314 323.4 35.922 A 0.421 0.421 0 0 0 323.399 35.896 Q 323.382 35.622 323 35.622 Q 322.6 35.622 322 35.922 Q 321.4 36.222 320.8 36.622 Q 320.481 36.835 320.219 37.047 A 5.392 5.392 0 0 0 319.8 37.422 Q 319.113 38.11 318.698 38.739 A 4.561 4.561 0 0 0 318.3 39.472 A 12.162 12.162 0 0 0 318.076 40.048 Q 317.788 40.843 317.5 41.922 Q 317.2 42.922 317.5 43.222 Q 317.6 43.322 317.75 43.172 A 1.274 1.274 0 0 0 317.755 43.168 A 1.336 1.336 0 0 0 318 42.822 A 8.001 8.001 0 0 1 318.175 42.258 Q 318.295 41.919 318.434 41.643 A 3.4 3.4 0 0 1 318.75 41.122 A 14.416 14.416 0 0 0 318.81 41.042 Q 319.021 40.757 319.242 40.428 A 24.089 24.089 0 0 0 319.7 39.722 Q 320.2 39.122 320.85 38.572 Q 321.256 38.228 321.604 37.943 A 41.862 41.862 0 0 1 322 37.622 Q 322.3 37.422 322.85 36.922 Z M 153.15 11.291 A 2.033 2.033 0 0 0 153.1 11.722 A 1.776 1.776 0 0 0 153.111 11.921 Q 153.137 12.145 153.217 12.386 A 3.34 3.34 0 0 0 153.4 12.822 A 1.374 1.374 0 0 0 153.436 12.89 Q 153.634 13.237 153.984 13.358 A 1.267 1.267 0 0 0 154.4 13.422 A 0.689 0.689 0 0 0 154.81 13.29 Q 155.035 13.129 155.2 12.772 A 5.689 5.689 0 0 0 155.255 12.649 Q 155.415 12.279 155.471 11.997 A 1.435 1.435 0 0 0 155.5 11.722 A 1.903 1.903 0 0 0 155.477 11.434 Q 155.446 11.228 155.371 11.001 A 4.042 4.042 0 0 0 155.2 10.572 A 1.964 1.964 0 0 0 155.118 10.413 Q 155.03 10.261 154.928 10.157 A 0.716 0.716 0 0 0 154.4 9.922 A 1.402 1.402 0 0 0 154.282 9.927 Q 153.892 9.96 153.639 10.216 A 1.243 1.243 0 0 0 153.4 10.572 A 4.325 4.325 0 0 0 153.281 10.854 Q 153.195 11.083 153.15 11.291 Z M 277.55 11.291 A 2.033 2.033 0 0 0 277.5 11.722 A 1.776 1.776 0 0 0 277.511 11.921 Q 277.537 12.145 277.617 12.386 A 3.34 3.34 0 0 0 277.8 12.822 A 1.374 1.374 0 0 0 277.836 12.89 Q 278.034 13.237 278.384 13.358 A 1.267 1.267 0 0 0 278.8 13.422 A 0.689 0.689 0 0 0 279.21 13.29 Q 279.435 13.129 279.6 12.772 A 5.689 5.689 0 0 0 279.655 12.649 Q 279.815 12.279 279.871 11.997 A 1.435 1.435 0 0 0 279.9 11.722 A 1.903 1.903 0 0 0 279.877 11.434 Q 279.846 11.228 279.771 11.001 A 4.042 4.042 0 0 0 279.6 10.572 A 1.964 1.964 0 0 0 279.518 10.413 Q 279.43 10.261 279.328 10.157 A 0.716 0.716 0 0 0 278.8 9.922 A 1.402 1.402 0 0 0 278.682 9.927 Q 278.292 9.96 278.039 10.216 A 1.243 1.243 0 0 0 277.8 10.572 A 4.325 4.325 0 0 0 277.681 10.854 Q 277.595 11.083 277.55 11.291 Z" vector-effect="non-scaling-stroke"/></g></svg>